<svg xmlns="http://www.w3.org/2000/svg" xmlns:xlink="http://www.w3.org/1999/xlink" viewBox="0 0 650 650"><defs><style>.cls-1{fill:url(#Безымянный_градиент_263);}.cls-2{fill:url(#Безымянный_градиент_5);}.cls-18,.cls-3,.cls-40,.cls-44,.cls-45,.cls-48,.cls-5,.cls-64{fill:none;stroke-miterlimit:10;}.cls-3{stroke-width:0.93px;stroke:url(#Безымянный_градиент_10);}.cls-4{fill:url(#Безымянный_градиент_17);}.cls-5{stroke-width:2.67px;stroke:url(#Безымянный_градиент_164);}.cls-6{fill:url(#Безымянный_градиент_5-2);}.cls-7{fill:url(#Безымянный_градиент_5-3);}.cls-8{fill:url(#Безымянный_градиент_5-4);}.cls-9{fill:url(#Безымянный_градиент_5-5);}.cls-10{fill:url(#Безымянный_градиент_5-6);}.cls-11{fill:url(#Безымянный_градиент_5-7);}.cls-12{fill:url(#Безымянный_градиент_18);}.cls-13{fill:url(#Безымянный_градиент_33);}.cls-14{fill:url(#Безымянный_градиент_33-2);}.cls-15{fill:url(#Безымянный_градиент_33-3);}.cls-16{fill:url(#Безымянный_градиент_17-2);}.cls-17{fill:url(#Безымянный_градиент_33-4);}.cls-18{stroke-width:1.55px;stroke:url(#Безымянный_градиент_33-5);}.cls-19{fill:url(#Безымянный_градиент_33-6);}.cls-20{fill:url(#Безымянный_градиент_17-3);}.cls-21{fill:url(#Безымянный_градиент_33-7);}.cls-22{fill:url(#Безымянный_градиент_11);}.cls-23{fill:url(#Безымянный_градиент_16);}.cls-24{fill:url(#Безымянный_градиент_170);}.cls-25{fill:#fff;}.cls-26{fill:url(#Безымянный_градиент_170-2);}.cls-27{fill:url(#Безымянный_градиент_170-3);}.cls-28{fill:url(#Безымянный_градиент_170-4);}.cls-29{fill:url(#Безымянный_градиент_216);}.cls-30{fill:url(#Безымянный_градиент_40);}.cls-31{fill:url(#Безымянный_градиент_51);}.cls-32{fill:url(#Безымянный_градиент_50);}.cls-33{fill:url(#Безымянный_градиент_9);}.cls-34{fill:url(#Безымянный_градиент_123);}.cls-35{fill:url(#Безымянный_градиент_5-8);}.cls-36{fill:url(#Безымянный_градиент_271);}.cls-37{fill:url(#Безымянный_градиент_5-9);}.cls-38{fill:url(#Безымянный_градиент_123-2);}.cls-39{fill:url(#Безымянный_градиент_9-2);}.cls-40{stroke:#17ff44;stroke-width:1.95px;}.cls-41{fill:url(#Безымянный_градиент_271-2);}.cls-42{fill:url(#Безымянный_градиент_269);}.cls-43{fill:#191337;}.cls-44,.cls-45,.cls-64{stroke:#fff;}.cls-44{stroke-linecap:round;}.cls-45{stroke-width:0.76px;}.cls-46{fill:url(#Безымянный_градиент_5-10);}.cls-47{fill:url(#Безымянный_градиент_123-3);}.cls-48{stroke:#d6d9e8;stroke-width:5.49px;}.cls-49{fill:url(#Безымянный_градиент_269-2);}.cls-50{fill:url(#Безымянный_градиент_16-2);}.cls-51{fill:url(#Безымянный_градиент_16-3);}.cls-52{fill:url(#Безымянный_градиент_40-2);}.cls-53{fill:url(#Безымянный_градиент_5-11);}.cls-54{fill:url(#Безымянный_градиент_49);}.cls-55{fill:url(#Безымянный_градиент_47);}.cls-56{fill:#464b8b;}.cls-57{fill:url(#Безымянный_градиент_39);}.cls-58{fill:url(#Безымянный_градиент_123-4);}.cls-59{fill:url(#Безымянный_градиент_48);}.cls-60{fill:url(#Безымянный_градиент_123-5);}.cls-61{fill:url(#Безымянный_градиент_46);}.cls-62{fill:url(#Безымянный_градиент_18-2);}.cls-63{fill:#211a49;}</style><linearGradient id="Безымянный_градиент_263" x1="9.35" y1="348.17" x2="635.86" y2="348.17" gradientUnits="userSpaceOnUse"><stop offset="0" stop-color="#f0f2f5"/><stop offset="0.99" stop-color="#f5f7f8"/></linearGradient><linearGradient id="Безымянный_градиент_5" x1="95.62" y1="505.51" x2="71.09" y2="319.33" gradientUnits="userSpaceOnUse"><stop offset="0" stop-color="#1f1844"/><stop offset="0.99" stop-color="#3d3c99"/></linearGradient><linearGradient id="Безымянный_градиент_10" x1="94.38" y1="500.72" x2="72.8" y2="336.95" gradientUnits="userSpaceOnUse"><stop offset="0" stop-color="#3f3d9e"/><stop offset="0.99" stop-color="#423e9f"/></linearGradient><linearGradient id="Безымянный_градиент_17" x1="106.96" y1="437.03" x2="198.01" y2="416.11" gradientUnits="userSpaceOnUse"><stop offset="0.01" stop-color="#bbc0d9"/><stop offset="1" stop-color="#d6dbf8"/></linearGradient><linearGradient id="Безымянный_градиент_164" x1="473.45" y1="387.46" x2="543.12" y2="400.21" gradientTransform="translate(-424.12 155.58) rotate(-10.18)" gradientUnits="userSpaceOnUse"><stop offset="0" stop-color="#bac6d8"/><stop offset="0.99" stop-color="#d6dbf8"/></linearGradient><linearGradient id="Безымянный_градиент_5-2" x1="93.89" y1="440.85" x2="65.97" y2="413.41" xlink:href="#Безымянный_градиент_5"/><linearGradient id="Безымянный_градиент_5-3" x1="93" y1="463.9" x2="60.51" y2="452.59" xlink:href="#Безымянный_градиент_5"/><linearGradient id="Безымянный_градиент_5-4" x1="95.42" y1="440.77" x2="124.97" y2="417.53" xlink:href="#Безымянный_градиент_5"/><linearGradient id="Безымянный_градиент_5-5" x1="93.27" y1="463.94" x2="121.95" y2="450.2" xlink:href="#Безымянный_градиент_5"/><linearGradient id="Безымянный_градиент_5-6" x1="98.39" y1="485.52" x2="60.21" y2="480.96" xlink:href="#Безымянный_градиент_5"/><linearGradient id="Безымянный_градиент_5-7" x1="94.15" y1="488.2" x2="120.24" y2="472.26" xlink:href="#Безымянный_градиент_5"/><linearGradient id="Безымянный_градиент_18" x1="103.94" y1="380.63" x2="95.01" y2="417.13" gradientUnits="userSpaceOnUse"><stop offset="0.01" stop-color="#3d3c99"/><stop offset="1" stop-color="#1f1844"/></linearGradient><linearGradient id="Безымянный_градиент_33" x1="1567.72" y1="830.24" x2="1579.51" y2="830.24" gradientTransform="translate(-1616.31 964.42) rotate(-45.37)" gradientUnits="userSpaceOnUse"><stop offset="0" stop-color="#e0e4eb"/><stop offset="0.99" stop-color="#f3f6fd"/></linearGradient><linearGradient id="Безымянный_градиент_33-2" x1="2109.71" y1="1653.45" x2="2121.62" y2="1653.45" gradientTransform="translate(-2144.18 1969.32) rotate(-72.22)" xlink:href="#Безымянный_градиент_33"/><linearGradient id="Безымянный_градиент_33-3" x1="-1396.35" y1="1350.21" x2="-1384.55" y2="1350.21" gradientTransform="matrix(0.63, 0.78, -0.78, 0.63, 2033.34, 654.17)" xlink:href="#Безымянный_градиент_33"/><linearGradient id="Безымянный_градиент_17-2" x1="110.42" y1="462.72" x2="122.72" y2="450.1" xlink:href="#Безымянный_градиент_17"/><linearGradient id="Безымянный_градиент_33-4" x1="-1535.11" y1="1583.58" x2="-1523.02" y2="1583.58" gradientTransform="matrix(0.5, 0.87, -0.77, 0.45, 2091.97, 1069.89)" xlink:href="#Безымянный_градиент_33"/><linearGradient id="Безымянный_градиент_33-5" x1="571.41" y1="406.47" x2="588.79" y2="406.47" gradientTransform="translate(-558.35 197.07) rotate(-13.38)" xlink:href="#Безымянный_градиент_33"/><linearGradient id="Безымянный_градиент_33-6" x1="2444.62" y1="2174.71" x2="2456.98" y2="2174.71" gradientTransform="matrix(0.04, -0.93, 1, 0.04, -2202.77, 2673.24)" xlink:href="#Безымянный_градиент_33"/><linearGradient id="Безымянный_градиент_17-3" x1="110.7" y1="482.54" x2="122.98" y2="468.92" xlink:href="#Безымянный_градиент_17"/><linearGradient id="Безымянный_градиент_33-7" x1="-1589.32" y1="1941.65" x2="-1575.94" y2="1941.65" gradientTransform="matrix(0.35, 0.94, -0.74, 0.28, 2100.6, 1420.84)" xlink:href="#Безымянный_градиент_33"/><linearGradient id="Безымянный_градиент_11" x1="105.85" y1="380.11" x2="96.93" y2="416.61" gradientUnits="userSpaceOnUse"><stop offset="0" stop-color="#e6eaf1"/><stop offset="0.99" stop-color="#f3f6fd"/></linearGradient><linearGradient id="Безымянный_градиент_16" x1="69.36" y1="540.26" x2="137.37" y2="524.63" gradientUnits="userSpaceOnUse"><stop offset="0.11" stop-color="#8988d5"/><stop offset="0.56" stop-color="#9d9ce8"/><stop offset="1" stop-color="#a7a5ee"/></linearGradient><linearGradient id="Безымянный_градиент_170" x1="89.37" y1="223.35" x2="404.65" y2="223.35" gradientUnits="userSpaceOnUse"><stop offset="0.01" stop-color="#bbbfd9"/><stop offset="1" stop-color="#d6dbf8"/></linearGradient><linearGradient id="Безымянный_градиент_170-2" x1="400.1" y1="508.36" x2="426.51" y2="508.36" xlink:href="#Безымянный_градиент_170"/><linearGradient id="Безымянный_градиент_170-3" x1="497.97" y1="502.71" x2="524.83" y2="502.71" xlink:href="#Безымянный_градиент_170"/><linearGradient id="Безымянный_градиент_170-4" x1="461.51" y1="510.2" x2="486.44" y2="510.2" xlink:href="#Безымянный_градиент_170"/><linearGradient id="Безымянный_градиент_216" x1="462.93" y1="453.37" x2="462.93" y2="288.34" gradientUnits="userSpaceOnUse"><stop offset="0" stop-color="#201f4f"/><stop offset="0.39" stop-color="#3d3c99"/><stop offset="1" stop-color="#403da0"/></linearGradient><linearGradient id="Безымянный_градиент_40" x1="514.76" y1="374.41" x2="529.76" y2="375.91" gradientUnits="userSpaceOnUse"><stop offset="0.11" stop-color="#343381"/><stop offset="0.56" stop-color="#3d3c99"/><stop offset="1" stop-color="#403da0"/></linearGradient><linearGradient id="Безымянный_градиент_51" x1="402.95" y1="368.06" x2="394" y2="341.64" gradientUnits="userSpaceOnUse"><stop offset="0" stop-color="#753200"/><stop offset="0.05" stop-color="#793300"/><stop offset="0.38" stop-color="#8e3d00"/><stop offset="0.7" stop-color="#9c4200"/><stop offset="1" stop-color="#a04400"/></linearGradient><linearGradient id="Безымянный_градиент_50" x1="355.62" y1="439.88" x2="429.01" y2="439.88" gradientUnits="userSpaceOnUse"><stop offset="0" stop-color="#f7d6d2"/><stop offset="0.95" stop-color="#f7e5e3"/></linearGradient><linearGradient id="Безымянный_градиент_9" x1="374.85" y1="490.32" x2="421.17" y2="490.32" gradientUnits="userSpaceOnUse"><stop offset="0.05" stop-color="#f7e5e3"/><stop offset="1" stop-color="#f7d6d2"/></linearGradient><linearGradient id="Безымянный_градиент_123" x1="403.27" y1="536.85" x2="431.07" y2="536.85" gradientUnits="userSpaceOnUse"><stop offset="0" stop-color="#753200"/><stop offset="1" stop-color="#a04400"/></linearGradient><linearGradient id="Безымянный_градиент_5-8" x1="376.01" y1="340.82" x2="433.96" y2="332.85" xlink:href="#Безымянный_градиент_5"/><linearGradient id="Безымянный_градиент_271" x1="405.65" y1="337.95" x2="457.16" y2="330.87" gradientUnits="userSpaceOnUse"><stop offset="0.01" stop-color="#bbbfd9"/><stop offset="0.29" stop-color="#cacde2"/><stop offset="0.84" stop-color="#f2f3f8"/><stop offset="1" stop-color="#fff"/></linearGradient><linearGradient id="Безымянный_градиент_5-9" x1="413.17" y1="340.9" x2="495.4" y2="329.59" xlink:href="#Безымянный_градиент_5"/><linearGradient id="Безымянный_градиент_123-2" x1="313.7" y1="557.18" x2="344.39" y2="557.18" xlink:href="#Безымянный_градиент_123"/><linearGradient id="Безымянный_градиент_9-2" x1="365.6" y1="445.13" x2="397.1" y2="464.13" xlink:href="#Безымянный_градиент_9"/><linearGradient id="Безымянный_градиент_271-2" x1="254.39" y1="346.9" x2="388.93" y2="346.9" xlink:href="#Безымянный_градиент_271"/><linearGradient id="Безымянный_градиент_269" x1="370.6" y1="373.53" x2="403" y2="331.16" gradientUnits="userSpaceOnUse"><stop offset="0" stop-color="#fff"/><stop offset="0.16" stop-color="#f2f3f8"/><stop offset="0.71" stop-color="#cacde2"/><stop offset="0.99" stop-color="#bbbfd9"/></linearGradient><linearGradient id="Безымянный_градиент_5-10" x1="477.26" y1="346.45" x2="487.15" y2="346.45" xlink:href="#Безымянный_градиент_5"/><linearGradient id="Безымянный_градиент_123-3" x1="451.94" y1="312.47" x2="448.99" y2="358.7" xlink:href="#Безымянный_градиент_123"/><linearGradient id="Безымянный_градиент_269-2" x1="434.87" y1="366.49" x2="462.95" y2="366.49" xlink:href="#Безымянный_градиент_269"/><linearGradient id="Безымянный_градиент_16-2" x1="549.9" y1="490.86" x2="567.93" y2="490.86" xlink:href="#Безымянный_градиент_16"/><linearGradient id="Безымянный_градиент_16-3" x1="241.57" y1="490.86" x2="258.4" y2="490.86" xlink:href="#Безымянный_градиент_16"/><linearGradient id="Безымянный_градиент_40-2" x1="404.65" y1="401.73" x2="404.65" y2="384.68" xlink:href="#Безымянный_градиент_40"/><linearGradient id="Безымянный_градиент_5-11" x1="422.78" y1="303.02" x2="443.4" y2="303.02" xlink:href="#Безымянный_градиент_5"/><linearGradient id="Безымянный_градиент_49" x1="481.76" y1="251.49" x2="493.83" y2="264.94" gradientUnits="userSpaceOnUse"><stop offset="0" stop-color="#201f4f"/><stop offset="0.96" stop-color="#252557"/></linearGradient><linearGradient id="Безымянный_градиент_47" x1="467.23" y1="254.38" x2="478.85" y2="275.02" gradientUnits="userSpaceOnUse"><stop offset="0" stop-color="#29295c"/><stop offset="0.96" stop-color="#252557"/></linearGradient><linearGradient id="Безымянный_градиент_39" x1="383.78" y1="218.19" x2="497.31" y2="218.19" gradientUnits="userSpaceOnUse"><stop offset="0" stop-color="#464b8b"/><stop offset="0.28" stop-color="#393c76"/><stop offset="0.74" stop-color="#27275a"/><stop offset="1" stop-color="#201f4f"/></linearGradient><linearGradient id="Безымянный_градиент_123-4" x1="393" y1="272.79" x2="463.01" y2="240.38" xlink:href="#Безымянный_градиент_123"/><linearGradient id="Безымянный_градиент_48" x1="464.15" y1="255.93" x2="439.39" y2="280.23" gradientUnits="userSpaceOnUse"><stop offset="0" stop-color="#a04400"/><stop offset="1" stop-color="#753200"/></linearGradient><linearGradient id="Безымянный_градиент_123-5" x1="464.09" y1="238.65" x2="460.89" y2="241.79" xlink:href="#Безымянный_градиент_123"/><linearGradient id="Безымянный_градиент_46" x1="382.78" y1="250.42" x2="452.83" y2="218" gradientUnits="userSpaceOnUse"><stop offset="0" stop-color="#a04400" stop-opacity="0"/><stop offset="0.24" stop-color="#974000" stop-opacity="0.14"/><stop offset="0.7" stop-color="#803700" stop-opacity="0.52"/><stop offset="0.9" stop-color="#753200" stop-opacity="0.7"/></linearGradient><linearGradient id="Безымянный_градиент_18-2" x1="445.85" y1="304.78" x2="486.44" y2="304.78" xlink:href="#Безымянный_градиент_18"/></defs><title>1</title><g id="Слой_2" data-name="Слой 2"><path class="cls-1" d="M614.46,360.66C559.44,248.19,402.09,83.45,197.62,83c-213.36-.44-234,211.17-119,270S25.47,485.16,145.68,558.82c121.66,74.56,381.67,67.56,445.67,9.56S638.23,409.25,614.46,360.66Z"/><path class="cls-2" d="M95.9,506.84s27-30.06,24.14-41.91,13.89-26.24,14.22-43.5c.37-19.55-10.07-14.32-13.69-22.68-5.36-12.39,6.57-23.36-11.46-28.1-12.31-3.24-21,3.08-19.84-12.15S84.88,324.42,75,317.58c-14.09-9.78-42.76-10.54-33.1,9.16,10.15,20.71,1.2,54.81-1.16,64.15C15.76,489.59,95.9,506.84,95.9,506.84Z"/><path class="cls-3" d="M65.77,337.88c3.09,25.48,35,66.2,20.57,93.41s7.47,69.34,7.47,69.34"/><path class="cls-4" d="M177.74,449.91C160.2,456.11,179.19,478.8,160,489s-43.77,15.4-44.9,10.44c-.08-.33-1.11-3.62-2.2-8.43-.25-1.11-.5-2.31-.75-3.57-.06-.35-.13-.71-.2-1.07a97.08,97.08,0,0,1-1.45-11.61c0-.12,0-.24,0-.36-.09-1.55-.12-3.11-.09-4.66s.11-3,.27-4.43c.57-5.52,2.15-10.61,5.38-14.26a15.27,15.27,0,0,1,2.8-2.51c13.33-9.27,18.65-4.77,18.55-18.47-.18-23.48,6.51-27,14.38-24.67s14,3,15.17-5.71-6-47.36,11.92-47.29c31,.1,15.31,39.62,12.18,46-7.5,15.37,8.1,17.78,11.81,29S195.27,443.71,177.74,449.91Z"/><path class="cls-5" d="M111.67,533.2S107,490,139.9,465.76c14.88-10.94,42.54-50,40-92.28"/><path class="cls-6" d="M65.5,413c4.09-6.94,33.51,21.68,28.36,28S61.6,419.6,65.5,413Z"/><path class="cls-7" d="M58.07,452c.59-8.08,36.1,3.54,34.28,11.52S57.51,459.72,58.07,452Z"/><path class="cls-8" d="M125.11,416.36c6.29,4.93-24.76,31.67-30.3,25.74S119.11,411.66,125.11,416.36Z"/><path class="cls-9" d="M121.85,450.06c5.29,6-24.7,21-29.2,14.23S116.81,444.36,121.85,450.06Z"/><path class="cls-10" d="M60.43,481.07c-1.55-7.42,37.59-3.15,37.93,4.49S61.91,488.13,60.43,481.07Z"/><path class="cls-11" d="M119.94,472.43c4.06,6.86-24,24-27.25,16.51S116.08,465.89,119.94,472.43Z"/><path class="cls-12" d="M104.47,379.62c7.9.58-2.32,40.39-10.13,38.55S96.94,379.07,104.47,379.62Z"/><path class="cls-13" d="M68.46,411.1c4.09-6.94,33.51,21.68,28.36,28S64.56,417.71,68.46,411.1Z"/><path class="cls-14" d="M60.43,450.37c.59-8.08,36.1,3.54,34.28,11.52S59.87,458.07,60.43,450.37Z"/><path class="cls-15" d="M126.3,414.58c6.29,4.93-24.76,31.67-30.3,25.74S120.31,409.89,126.3,414.58Z"/><path class="cls-16" d="M111.32,463.8c.55-5.42,2.06-10.42,5.17-14,3.75-.75,6.9-.6,8.28,1C127.71,454.06,119.75,460.18,111.32,463.8Z"/><path class="cls-17" d="M123.33,448.79c5.29,6-24.7,21-29.2,14.23S118.3,443.09,123.33,448.79Z"/><path class="cls-18" d="M96.45,408.78s.9,20.68-1.84,38.73,4.17,48.6,15.42,58.36"/><path class="cls-19" d="M60.43,479.65c-1.55-7.42,37.59-3.15,37.93,4.49S61.91,486.72,60.43,479.65Z"/><path class="cls-20" d="M112.76,485.53c-.06-.34-.12-.7-.19-1.05a97.42,97.42,0,0,1-1.39-11.4c0-.12,0-.24,0-.35,6.39-3.54,13.21-5.32,15-2.26C128.45,474.32,120.63,481.39,112.76,485.53Z"/><path class="cls-21" d="M124.73,467.53c4.06,6.86-24,24-27.25,16.51S120.87,461,124.73,467.53Z"/><path class="cls-22" d="M106.39,379.1c7.9.58-2.32,40.39-10.13,38.55S98.86,378.55,106.39,379.1Z"/><path class="cls-23" d="M113.17,570.13H88.84a21.91,21.91,0,0,1-21.71-19l-6-44.78a5.06,5.06,0,0,1,5-5.73h69.8a5.06,5.06,0,0,1,5,5.73l-6,44.78A21.91,21.91,0,0,1,113.17,570.13Z"/><rect class="cls-24" x="89.37" y="115.1" width="315.29" height="216.5" rx="11.45" ry="11.45"/><rect class="cls-25" x="98.33" y="124.39" width="297.35" height="197.93" rx="6.84" ry="6.84"/><path class="cls-26" d="M406.21,565.28a6.11,6.11,0,0,1-6-7l14.41-106.86,11.94,1.35L412.25,560C411.82,563,406.21,565.28,406.21,565.28Z"/><path class="cls-27" d="M512.76,557.43,498,448.54l10-4,16.73,110.8c.69,3.94-2.34,4.66-5.33,5.2S513.46,561.45,512.76,557.43Z"/><path class="cls-28" d="M474.15,570.48,461.51,446.34h12.34l12.57,123.25c.28,3.83-2.64,3.68-5.52,4.11C477.69,574.19,474.46,574.81,474.15,570.48Z"/><path class="cls-29" d="M519.94,431.89c-2.61,19.29-31,22-64,23.07-1,.5-37.46.28-54.44-5.44l.59-130.62c0-11,4.71-29.23,20.81-29.5,27-.45,77.15-4.57,96.78,1.5,4.49,16.12,7.76,33.92.28,80.48C515.67,398,521.2,422.63,519.94,431.89Z"/><path class="cls-30" d="M512.5,299c6,18,5.24,28.4-2.75,57.47-13.31,48.45,8.54,73.32-37.63,97.75,28-1.6,45.6-5.91,47.82-22.33,1.26-9.26-4.27-33.87,0-60.52,5.51-34.29,15.79-62.31,2.12-78.87C518.28,287.92,510.48,292.92,512.5,299Z"/><path class="cls-31" d="M411.4,330.38s-4,18.73-3,27.47c-20.13,9.07-24.43,16.27-24.17,17.75L380,358l8.43-.91,5.33-25.37C396.87,334.84,411.4,330.38,411.4,330.38Z"/><path class="cls-32" d="M429,405.43c-11-.72-43,.59-57.65,4.31-27.5,7-12.8,38-2.13,64.78,3.66-9,9.93-48.49,13.61-53.09C390.33,412.09,419,407.13,429,405.43Z"/><polygon class="cls-33" points="399.28 446.09 390.68 459.17 374.85 483.23 403.27 534.55 421.18 523.7 399.28 446.09"/><polygon class="cls-34" points="429.07 527.49 421.2 523.79 421.18 523.7 403.27 534.55 403.39 534.76 407.57 542.33 419.4 549.99 424.37 549.33 431.07 534.33 429.07 527.49"/><path class="cls-35" d="M441,281.21c-18.37,2.62-26.25,4-33.58,15.33C398.52,310.26,393.7,327,393.22,331a3.65,3.65,0,0,0,.54.68c3.11,3.15,16.65.77,16.65.77s-4.5,4.26-3.83,15.42c.05.92,5.33,35.69,5.33,36.4h16.61C427.63,349.24,426.58,313.75,441,281.21Z"/><path class="cls-36" d="M462.65,279.58,442.15,281l-1.18.17c-14.39,32.54-13.35,68-12.46,103.06h17.62C436.72,348.48,450.82,312.87,462.65,279.58Z"/><path class="cls-37" d="M484.32,339.67c6.81,3,24.57.13,31.63-1.06,0,0-1.61-39.31-13.3-52.07s-32.42-7.5-32.42-7.5l-7.58.54c-11.83,33.29-25.93,68.9-16.52,104.69h48S485,346.41,484.32,339.67Z"/><path class="cls-38" d="M324.42,542.72c-4,4.26-9.79,10.5-10.72,11.36,4.81,1.9,2.39,15.8,6.37,18s14.51-7.32,19.58-6.16c.32-3,2.77-9.4,4.7-13.84l0-.05L324.7,542Z"/><path class="cls-39" d="M496.39,401.41l-80.48-1.07s-31.81,2.89-42.36,21.27c-1.36,2.37-9.81,20.46-9.81,20.46-13.86,32.67-38.1,92.62-40.83,99.93l23.83,11.39L398,465.2l13.06-14s40.27-2,62.14-9.66C507,429.71,496.39,401.41,496.39,401.41Z"/><path class="cls-40" d="M406.79,400.05s-3.62-.45-9.27-.82"/><path class="cls-41" d="M381.88,384.47H295.4l-15.85-68.14a5.7,5.7,0,0,1,5.56-7h80.84Z"/><path class="cls-42" d="M418.46,380.22l-.91,4.06H381.88l-18.68-71.39a2.84,2.84,0,0,1,2.74-3.55h0a2.84,2.84,0,0,1,2.76,2.17L380,358l4.29,17.63v0a1.45,1.45,0,0,0,0,.17l0,.06H415A3.59,3.59,0,0,1,418.46,380.22Z"/><circle class="cls-25" cx="326.9" cy="348.71" r="7.26"/><path class="cls-43" d="M284.66,559.85s-9.48-2.09-13.11-.79-4.56,4-4.82,6.89,2.79,7,14.57,11.36a356.38,356.38,0,0,0,36.82,10.93c3.86.78,10.4,1.94,16,1.62a7.28,7.28,0,0,0,6.55-5.55,19.9,19.9,0,0,1,1.16-3.36c1-2,.62-4.36,1.2-6s2-13-1.2-14.64-8.36,8.07-15.44,7.27-7.87-9.66-7.87-9.66,3.38-3.09,1.56-5.26.27-3.89-1.17-4.75-6.52,2.17-6.52,2.17-16.35,6.72-22.76,9.43C288.33,560,284.66,559.85,284.66,559.85Z"/><path class="cls-44" d="M271,568.29c21,12,45.42,12.25,45.42,12.25,6.83,1.59,13.65,6.13,22.41.92l.77-.42"/><path class="cls-43" d="M403.26,536.84s12.13,3.65,14.5,7.6,10.47-8.1,6.9-14.91,1.3-5.7,4.65-2.93,6.06.76,8.4,2.75,7.15,6.4,3.64,14.68S430,555.87,426.86,562.09s-2,18.86-6.79,23.59-13.89,10.78-24.21,5.73-1.1-18.86,1.3-22.3,2.87-15.2,3-20S399.49,538.26,403.26,536.84Z"/><path class="cls-45" d="M429,528.1s6.79,2.06,4.44,10.36-10.93,14.65-11.81,23.42-.8,16.56-9.29,22.92-12.2,5.47-12.2,5.47"/><path class="cls-46" d="M487.15,361.77l-3.58-30.65s-4.55,2.25-4.94,6.59-1.37,21.86-1.37,21.86Z"/><path class="cls-47" d="M512.29,339.2c-.09,8.57,1.78,27.28-1.89,35.59-4.78,10.81-9.31,10.26-27.21,7.25s-46.07-12.83-55.29-12.83-15,6.67-15,6.67H384.14c-.26-1.48-.15-9.1,21.7-17.22,3.66-1.55,14.21-2.83,23.35-3.49,25.1-1.81,58,6.6,58,6.6s-2.12-15.36-2.83-22.1C491.08,342.68,506.05,340.14,512.29,339.2Z"/><path class="cls-48" d="M459.74,359.59s9.14-.75,9.14,6.91-9.14,7.74-9.14,7.74"/><path class="cls-49" d="M460.81,384.27H438.07l-3.19-32.35a3,3,0,0,1,3.12-3.21h21.8a3,3,0,0,1,3.13,3.12Z"/><path class="cls-50" d="M563.24,583.18h-8.64c-2.59,0-4.69-1.41-4.69-3.16V398.54h18V580C567.93,581.76,565.83,583.18,563.24,583.18Z"/><path class="cls-51" d="M255.61,583.18H244.36c-1.54,0-2.79-.9-2.79-2V398.54H258.4V581.17C258.4,582.28,257.15,583.18,255.61,583.18Z"/><path class="cls-52" d="M241.85,384.31h325.6a10.45,10.45,0,0,1,10.45,10.45v8.47a0,0,0,0,1,0,0H231.4a0,0,0,0,1,0,0v-8.47A10.45,10.45,0,0,1,241.85,384.31Z"/><path class="cls-53" d="M443.4,276.48,426,281.21l-3.25,15.08,6.43,33.26S436.63,286.77,443.4,276.48Z"/><circle class="cls-54" cx="486.46" cy="256.72" r="12.32"/><circle class="cls-55" cx="472.82" cy="264.31" r="12.32"/><circle class="cls-56" cx="401.52" cy="207.85" r="12.32"/><circle class="cls-56" cx="401.52" cy="218.19" r="12.32"/><circle class="cls-56" cx="403.38" cy="232.5" r="12.32"/><circle class="cls-56" cx="409.13" cy="244.32" r="12.32"/><path class="cls-57" d="M505.57,218.19a56.77,56.77,0,1,1-108.76-22.81h0a56.77,56.77,0,0,1,108.76,22.82Z"/><path class="cls-58" d="M466.44,281.24s-.15-6-2.56-24.11c0-.28-.06-.54-.1-.8a40.62,40.62,0,0,1-.4-5.18c.06-.11.13-.22.18-.33,5.24-9.35,4.35-15.48.72-17.55a5.66,5.66,0,0,0-1.53-.59h0s1.44-11.89-3.41-21.47c-6.42-12.69-24.71-12.83-35.87-9.58s-20.93,16.69-17.1,29.06c1.52,4.92,3.82,9.4,4.38,13.89s-1.27,12,2.18,19.26c4.94,10.47,16.26,13.27,23.19,13.24a22.1,22.1,0,0,0,2.64-.17l.31,1.88.66,4.55-.41,20.79a2.84,2.84,0,0,0,4.92,2C452.28,297.47,467,284.62,466.44,281.24Z"/><path class="cls-59" d="M463.88,257.13a40.28,40.28,0,0,1-24.55,23.19l-.25-1.53-.31-1.88c7.59-4.15,16.06-11.87,24.79-26.09-.06.11-.12.22-.18.33a40.62,40.62,0,0,0,.4,5.18C463.81,256.59,463.84,256.86,463.88,257.13Z"/><path class="cls-60" d="M459.35,238.7s1.95-3.67,4-1.38,0,7,0,7Z"/><path class="cls-56" d="M505.57,218.19a56.51,56.51,0,0,1-13,36.1c-19.6,0-19.93-31.54-38.57-18.16-15.92,11.42-57.23-21.17-57.23-40.75h0a56.77,56.77,0,0,1,108.76,22.82Z"/><path class="cls-61" d="M446.33,242.72a15.62,15.62,0,0,0,12.48-9.23,19.79,19.79,0,0,0-4.8,2.39c-10.8,7.75-33.12-4.52-46.47-19.49a22,22,0,0,0-1.86,8.78C415.38,236.57,430.85,244.35,446.33,242.72Z"/><circle class="cls-56" cx="411.61" cy="187.53" r="12.32"/><circle class="cls-56" cx="404.69" cy="195.18" r="12.32"/><circle class="cls-56" cx="419.02" cy="178.82" r="12.32"/><circle class="cls-56" cx="431.34" cy="173.75" r="12.32"/><circle class="cls-56" cx="447.02" cy="170.54" r="12.32"/><circle class="cls-56" cx="462.62" cy="170.54" r="12.32"/><circle class="cls-56" cx="474.14" cy="176.96" r="12.32"/><circle class="cls-56" cx="485.14" cy="182.86" r="12.32"/><circle class="cls-56" cx="494.18" cy="196.85" r="12.32"/><circle class="cls-56" cx="498.78" cy="209.55" r="12.32"/><circle class="cls-56" cx="500.67" cy="226.14" r="12.32"/><circle class="cls-56" cx="494.18" cy="242.15" r="12.32"/><path class="cls-62" d="M477.49,276.13l-9.71,1.5S449.06,303,445.89,331.25a13.51,13.51,0,0,0,0,2.19c9.87-27.9,40.53-44.4,40.53-44.4Z"/><polygon class="cls-63" points="477.26 275.79 465.88 274.01 466.14 279.99 477.49 276.13 477.26 275.79"/><path class="cls-64" d="M420.15,405.24,392,416.33a30.29,30.29,0,0,0-16.9,16.61L326.9,543.11"/></g></svg>