<svg xmlns="http://www.w3.org/2000/svg" xmlns:xlink="http://www.w3.org/1999/xlink" viewBox="0 0 650 650"><defs><style>.cls-1{fill:url(#Безымянный_градиент_263);}.cls-13,.cls-2{fill:#1f1844;}.cls-3{fill:url(#Безымянный_градиент_170);}.cls-4{fill:url(#Безымянный_градиент_250);}.cls-5{fill:url(#Безымянный_градиент_170-2);}.cls-6{fill:#fff;}.cls-10,.cls-11,.cls-12,.cls-14,.cls-7,.cls-8,.cls-9{fill:none;stroke-miterlimit:10;}.cls-10,.cls-11,.cls-7,.cls-8,.cls-9{stroke-width:1.8px;}.cls-7{stroke:url(#Безымянный_градиент_170-3);}.cls-8{stroke:url(#Безымянный_градиент_170-4);}.cls-9{stroke:url(#Безымянный_градиент_170-5);}.cls-10{stroke:url(#Безымянный_градиент_170-6);}.cls-11{stroke:url(#Безымянный_градиент_170-7);}.cls-12{stroke:#1f1844;stroke-width:7.22px;}.cls-12,.cls-14{stroke-linecap:round;}.cls-13{font-size:31.24px;font-family:OpenSans-Bold, Open Sans;font-weight:700;}.cls-14{stroke:#d5527e;stroke-width:2.71px;}.cls-15{fill:url(#Безымянный_градиент_123);}.cls-16{fill:url(#Безымянный_градиент_123-2);}.cls-17{fill:url(#Безымянный_градиент_123-3);}.cls-18{fill:url(#Безымянный_градиент_123-4);}.cls-19{fill:url(#Безымянный_градиент_122);}.cls-20{fill:url(#Безымянный_градиент_48);}.cls-21{fill:url(#Безымянный_градиент_123-5);}.cls-22{fill:url(#Безымянный_градиент_250-2);}.cls-23{fill:url(#Безымянный_градиент_250-3);}.cls-24{fill:url(#Безымянный_градиент_16);}.cls-25{fill:url(#Безымянный_градиент_250-4);}.cls-26{fill:url(#Безымянный_градиент_250-5);}.cls-27{fill:url(#Безымянный_градиент_123-6);}.cls-28{fill:url(#Безымянный_градиент_123-7);}.cls-29{fill:url(#Безымянный_градиент_250-6);}.cls-30{fill:url(#Безымянный_градиент_250-7);}.cls-31{fill:url(#Безымянный_градиент_123-8);}.cls-32{fill:url(#Безымянный_градиент_250-8);}.cls-33{fill:url(#Безымянный_градиент_123-9);}.cls-34{fill:url(#Безымянный_градиент_139);}.cls-35{fill:url(#Безымянный_градиент_123-10);}.cls-36{fill:url(#Безымянный_градиент_123-11);}.cls-37{fill:#d5527e;}.cls-38{fill:url(#Безымянный_градиент_123-12);}.cls-39{fill:url(#Безымянный_градиент_3);}.cls-40{fill:url(#Безымянный_градиент_123-13);}.cls-41{fill:#2d1582;}</style><linearGradient id="Безымянный_градиент_263" x1="10.8" y1="350.51" x2="575.92" y2="350.51" gradientUnits="userSpaceOnUse"><stop offset="0" stop-color="#f0f2f5"/><stop offset="0.99" stop-color="#f5f7f8"/></linearGradient><linearGradient id="Безымянный_градиент_170" x1="483.37" y1="286.01" x2="521.26" y2="286.01" gradientUnits="userSpaceOnUse"><stop offset="0.01" stop-color="#bbbfd9"/><stop offset="1" stop-color="#d6dbf8"/></linearGradient><linearGradient id="Безымянный_градиент_250" x1="483.37" y1="140.62" x2="521.26" y2="140.62" gradientUnits="userSpaceOnUse"><stop offset="0" stop-color="#a7a5ee"/><stop offset="0.44" stop-color="#9d9ce8"/><stop offset="0.89" stop-color="#8988d5"/></linearGradient><linearGradient id="Безымянный_градиент_170-2" x1="183.02" y1="286.01" x2="483.37" y2="286.01" xlink:href="#Безымянный_градиент_170"/><linearGradient id="Безымянный_градиент_170-3" x1="204.65" y1="232.47" x2="459.66" y2="232.47" xlink:href="#Безымянный_градиент_170"/><linearGradient id="Безымянный_градиент_170-4" x1="193.13" y1="291.13" x2="448.14" y2="291.13" xlink:href="#Безымянный_градиент_170"/><linearGradient id="Безымянный_градиент_170-5" x1="176.61" y1="349.79" x2="431.61" y2="349.79" xlink:href="#Безымянный_градиент_170"/><linearGradient id="Безымянный_градиент_170-6" x1="240.58" y1="286.66" x2="273.21" y2="286.66" xlink:href="#Безымянный_градиент_170"/><linearGradient id="Безымянный_градиент_170-7" x1="344.6" y1="286.55" x2="377.67" y2="286.55" xlink:href="#Безымянный_градиент_170"/><linearGradient id="Безымянный_градиент_123" x1="-300.27" y1="700.77" x2="-316.03" y2="673.09" gradientTransform="translate(1254.51 331.8) rotate(49.23)" gradientUnits="userSpaceOnUse"><stop offset="0" stop-color="#753200"/><stop offset="1" stop-color="#a04400"/></linearGradient><linearGradient id="Безымянный_градиент_123-2" x1="-290.63" y1="705.85" x2="-306.38" y2="678.17" gradientTransform="matrix(0.59, 0.81, -0.81, 0.59, 1320.43, 385.77)" xlink:href="#Безымянный_градиент_123"/><linearGradient id="Безымянный_градиент_123-3" x1="-39.27" y1="474.17" x2="-32.98" y2="474.17" gradientTransform="translate(760.02 -309.45) rotate(14.6)" xlink:href="#Безымянный_градиент_123"/><linearGradient id="Безымянный_градиент_123-4" x1="-106.19" y1="524.69" x2="-59.22" y2="497.84" gradientTransform="translate(760.02 -309.45) rotate(14.6)" xlink:href="#Безымянный_градиент_123"/><linearGradient id="Безымянный_градиент_122" x1="-74.61" y1="473.92" x2="-47" y2="456.08" gradientTransform="translate(760.02 -309.45) rotate(14.6)" gradientUnits="userSpaceOnUse"><stop offset="0" stop-color="#a04400" stop-opacity="0"/><stop offset="0.18" stop-color="#9a4100" stop-opacity="0.14"/><stop offset="0.52" stop-color="#8a3b00" stop-opacity="0.52"/><stop offset="0.9" stop-color="#753200"/></linearGradient><linearGradient id="Безымянный_градиент_48" x1="-36.66" y1="499.06" x2="-63.21" y2="525.12" gradientTransform="translate(760.02 -309.45) rotate(14.6)" gradientUnits="userSpaceOnUse"><stop offset="0" stop-color="#a04400"/><stop offset="1" stop-color="#753200"/></linearGradient><linearGradient id="Безымянный_градиент_123-5" x1="-36.23" y1="482.26" x2="-39.34" y2="485.32" gradientTransform="translate(760.02 -309.45) rotate(14.6)" xlink:href="#Безымянный_градиент_123"/><linearGradient id="Безымянный_градиент_250-2" x1="-40.5" y1="562.33" x2="-6.32" y2="562.33" gradientTransform="matrix(-1, 0, 0, 1, 556.37, 0)" xlink:href="#Безымянный_градиент_250"/><linearGradient id="Безымянный_градиент_250-3" x1="10.21" y1="556.84" x2="72.93" y2="556.84" gradientTransform="matrix(-1, 0, 0, 1, 556.37, 0)" xlink:href="#Безымянный_градиент_250"/><linearGradient id="Безымянный_градиент_16" x1="587.47" y1="180.29" x2="605.87" y2="180.29" gradientUnits="userSpaceOnUse"><stop offset="0.11" stop-color="#8988d5"/><stop offset="0.56" stop-color="#9d9ce8"/><stop offset="1" stop-color="#a7a5ee"/></linearGradient><linearGradient id="Безымянный_градиент_250-4" x1="512.15" y1="238.37" x2="583.66" y2="238.37" xlink:href="#Безымянный_градиент_250"/><linearGradient id="Безымянный_градиент_250-5" x1="536.14" y1="269.03" x2="634.21" y2="269.03" xlink:href="#Безымянный_градиент_250"/><linearGradient id="Безымянный_градиент_123-6" x1="546.73" y1="201.36" x2="573.31" y2="201.36" gradientTransform="matrix(1, 0, 0, 1, 0, 0)" xlink:href="#Безымянный_градиент_123"/><linearGradient id="Безымянный_градиент_123-7" x1="567.23" y1="272.07" x2="584.62" y2="272.07" gradientTransform="matrix(1, 0, 0, 1, 0, 0)" xlink:href="#Безымянный_градиент_123"/><linearGradient id="Безымянный_градиент_250-6" x1="538.07" y1="256.44" x2="566.57" y2="256.44" xlink:href="#Безымянный_градиент_250"/><linearGradient id="Безымянный_градиент_250-7" x1="558.88" y1="231.95" x2="634.41" y2="231.95" xlink:href="#Безымянный_градиент_250"/><linearGradient id="Безымянный_градиент_123-8" x1="588.16" y1="242.82" x2="602.93" y2="242.82" gradientTransform="matrix(1, 0, 0, 1, 0, 0)" xlink:href="#Безымянный_градиент_123"/><linearGradient id="Безымянный_градиент_250-8" x1="570.93" y1="228.79" x2="589.36" y2="228.79" xlink:href="#Безымянный_градиент_250"/><linearGradient id="Безымянный_градиент_123-9" x1="107.27" y1="190.81" x2="160.21" y2="190.81" gradientTransform="matrix(1, 0, 0, 1, 0, 0)" xlink:href="#Безымянный_градиент_123"/><linearGradient id="Безымянный_градиент_139" x1="66.74" y1="152.7" x2="168.87" y2="152.7" gradientUnits="userSpaceOnUse"><stop offset="0" stop-color="#201f4f"/><stop offset="0.26" stop-color="#27275a"/><stop offset="0.72" stop-color="#393c76"/><stop offset="1" stop-color="#464b8b"/></linearGradient><linearGradient id="Безымянный_градиент_123-10" x1="38.96" y1="270.8" x2="87.96" y2="270.8" gradientTransform="matrix(1, 0, 0, 1, 0, 0)" xlink:href="#Безымянный_градиент_123"/><linearGradient id="Безымянный_градиент_123-11" x1="108.33" y1="497.05" x2="142.5" y2="497.05" gradientTransform="matrix(1, 0, 0, 1, 0, 0)" xlink:href="#Безымянный_градиент_123"/><linearGradient id="Безымянный_градиент_123-12" x1="168.87" y1="242.53" x2="244.82" y2="242.53" gradientTransform="matrix(1, 0, 0, 1, 0, 0)" xlink:href="#Безымянный_градиент_123"/><linearGradient id="Безымянный_градиент_3" x1="43.14" y1="323.66" x2="184.08" y2="323.66" gradientUnits="userSpaceOnUse"><stop offset="0.09" stop-color="#d9d9d9"/><stop offset="0.12" stop-color="#d6d6d6"/><stop offset="0.7" stop-color="#aeaeae"/><stop offset="1" stop-color="#9f9f9f"/></linearGradient><linearGradient id="Безымянный_градиент_123-13" x1="28.39" y1="487.07" x2="87.15" y2="487.07" gradientTransform="matrix(1, 0, 0, 1, 0, 0)" xlink:href="#Безымянный_градиент_123"/></defs><title>1</title><g id="_01" data-name="01"><path class="cls-1" d="M556.63,361.78c-49.63-101.45-191.56-250-376-250.43-192.46-.4-211.07,190.48-107.34,243.53s-47.94,119.2,60.49,185.65c109.74,67.26,344.27,60.94,402,8.62S578.07,405.61,556.63,361.78Z"/><rect class="cls-2" x="183.02" y="100.6" width="300.35" height="80.04"/><rect class="cls-3" x="483.37" y="180.64" width="37.88" height="210.74"/><rect class="cls-4" x="483.37" y="100.6" width="37.88" height="80.04"/><rect class="cls-5" x="183.02" y="180.64" width="300.35" height="210.74"/><path class="cls-6" d="M183,180.64S179.92,360,137.5,391.37H425.2s58.17-43,58.17-210.74Z"/><path class="cls-7" d="M204.67,231.75s251.11,3.24,254.36,0"/><path class="cls-8" d="M193.14,290.41s251.11,3.24,254.36,0"/><path class="cls-9" d="M176.62,349.07s251.11,3.24,254.36,0"/><path class="cls-10" d="M272.31,198.06s-4.06,151.36-31.12,176.55"/><path class="cls-11" d="M376.63,198.06s3.92,117.54-31.26,176.55"/><path class="cls-12" d="M303.8,257.65l14,20.24a3.08,3.08,0,0,0,5.07,0l24.69-35.58"/><text class="cls-13" transform="translate(217.26 220.27)">15</text><path class="cls-14" d="M229.08,185.49c-13.83.6-24.49,37.78-5.26,42.24s39.09-5.41,36.68-19.54-15-19.54-15-19.54"/><polygon class="cls-15" points="525.35 533.46 520.73 545.92 522.5 558.79 525.96 561.86 540.46 557.51 544.02 552 540.31 532.48 525.35 533.46"/><polygon class="cls-16" points="578.42 535.07 573.65 543.89 571.75 558.32 576.59 563.42 591.41 560.32 595.44 555.14 593.41 535.37 578.42 535.07"/><path class="cls-17" d="M605.48,146.09c1.43-2.24,3.55-8.54,4.48-10.45-3.36-.41-7.47,3.71-8.23,6.64C602.61,142.39,604.73,145.22,605.48,146.09Z"/><path class="cls-18" d="M576.91,207.69c-9.57-.9-18-14.63-18-14.63a78.73,78.73,0,0,1,0-9.43l2.94-5.6,2.52.71.17-1.85c-.75-.09,3.93.83,3,.6-6.55-1.67-16.54-7.09-18.63-18.2-1.47-7.74,2.11-14.33,2.68-18.72s-.86-7.73-1.09-12.75c-.29-6.43,3.17-14,6.5-15.53,15-6.79,39.36,4,39.36,4s8,4.76,2.6,22c.94-.48-1.22,3.06,0,3a7.56,7.56,0,0,1,5.95,1.77c2.91,2.84,2.24,8.85-5,16.39l-.25.27a39.63,39.63,0,0,0-.89,5c0,.25-.07.51-.1.78-.38,3.1-.88,7.11-1.36,11-.68,5.6-1.06,10.45-1.23,12.33C595.59,193.36,586.49,208.59,576.91,207.69Z"/><path class="cls-19" d="M598.93,138.33c5.43-17.27-2.6-22-2.6-22s-24.4-10.8-39.36-4c-2.35,1.05-3.12,4.43-4,7.29,6.11-3.8,17.18-.61,26.07.74,4.25.65,1.78,5,2.95,5.34,9.67-.55,15.31,5,12,18.12l4.81-2.5C597.85,141.15,599.83,137.87,598.93,138.33Z"/><path class="cls-2" d="M610.6,134.71c.92-3,1.17-6.43,1.31-11.1.3-10.07-5-15.71-14.57-20.1l-9.24-3.59c-.84-.33-16.51-5.65-25.09-3.22-3.22.91-7.92,3.95-8.57,6.62-1.66,6.82-2.74,10.41-2.52,16,6.88-13.05,10,5.15,31.14-4.48,3.91-1.79,1.79,5,2.94,5.33,10.91-.62,16.71,6.47,10.28,23.54,3-.87,5.12-2,6.76-1.83C605.69,139.9,610.12,136.3,610.6,134.71Z"/><path class="cls-20" d="M598.62,165.48c-9.24,12-22.92,15.43-31.28,16.18l-2.76-2c-.75-.09,3.86-1.93,2.93-2.16,6.25-3.07,23.7-11.8,32.36-18l-.25.27a39.63,39.63,0,0,0-.89,5C598.69,165,598.65,165.22,598.62,165.48Z"/><path class="cls-2" d="M598.28,143.38c.4-.27,1.6-.89,1.6-.89l.1-3.43-5.37,1.86a2.87,2.87,0,0,0-1.91,2.36l-1.46,11.91c-7.35,2.24-24.71,9.64-27.56,9.38-3.61-.32-3.65-5-5.78-4.44s-2.53,3.2-3.83,2.86c-.68-.18-4.38-4.1-5.34-6.34,0,0,.34,7.93.48,9.35.34,3.28,5.29,11,5.29,11a3.16,3.16,0,0,0,2.31,1.55l8.44,1.14,4.78-1.48c6.59-1.8,23.24-11.34,23.76-13.1C596.77,154.81,594.24,146.09,598.28,143.38Z"/><path class="cls-21" d="M598.88,147s2.74-3,4.13-.31-1.72,6.6-1.72,6.6Z"/><path class="cls-2" d="M596.87,557.9s4.4,1.89-4,21.29c-2,4.53-10.83,7.22-19.49,7s-12.39-1.56-13-4S565,572,565,572Z"/><path class="cls-22" d="M596.79,556s.08-4.12-1.79-5.07c-.87,4.87-3.23,1.09-5.9-1.66-2.32-2.37-3.24-4.33-7.67-4.68s-5.82,3.25-7.67,4.68c-3.28,2.53-3.35,1-4.4,4.75-.93,3.28-3.78,15.25-6.32,20.07a2.84,2.84,0,0,0,.41,3.36c4.11,4.05,13.4,2.58,18.49,1.73,5.77-1,11-4.56,13.23-12.26S596.79,556,596.79,556Z"/><path class="cls-2" d="M546,561.19v5.55a4,4,0,0,1-3.41,3.92c-3.89.54-10.17,1.45-13.57,2.12-5.18,1-17.55,5.51-24.53,6s-14.85.56-18.34-1.69-2.7-7.54-2.7-7.54Z"/><path class="cls-23" d="M544,546.35s3.6,13.73,1.58,15.75-17.21,3-21.26,5.63-20.59,6.64-29.36,6-11.25-1.8-11.48-4.16,17.44-5.63,20.59-8,5.06-10.69,9.45-13.5,1-7.88,5.63-8.1,3.38,7.2,10.24,7.65A61.72,61.72,0,0,0,544,546.35Z"/><path class="cls-2" d="M611,298.19,566.08,309l-23.91-4.36s-36,102.48-38.42,114.12S521,538,521,538h23.77s2.43-30.56,0-58.2-7-42.19-7-48,31.78-66.94,31.78-66.94,7.47,36.45,10.4,62.57c5.16,46.08-9,114-9,114h26.64s9.81-18.63,18.05-63.73-8.41-43.23.9-79.35C631.32,340.56,611,298.19,611,298.19Z"/><path class="cls-24" d="M605.87,178.64v0c0,1.82-1.7,16.12-4.78,12.91-2.08-2.18-9.07-3.27-13.63-3.75,4.14-5.22,12.36-19.3,12.36-19.3S605.87,177,605.87,178.64Z"/><path class="cls-25" d="M583.66,280c-.75,1.21-17.83,7.74-18.84,8.27-1.86,1-19.36,2.33-28.68,2.73v-.73s-13.5.21-19-5.06-6.12-9.07-3.58-19.61,15.6-60.52,17.5-63.69,5.9-10.75,11-12.23a61.93,61.93,0,0,0,9.37-3.93c-.65.73-1.11,1.35-1.09,1.67.05.79-1.79,2.74-1.69,3.27s-.79,2.21-1.1,3.21a13.2,13.2,0,0,0-.79,3.53c-.1,1.58.53,2.37,2.69,6.85s4.85,9.44,4.85,9.44l4.08,12.11.52-.41c.4,2.36,1.3,7.18,2.59,14.52,1.62,9.21,6.59,21,11.67,29.19C572.78,269.36,583.66,280,583.66,280Z"/><path class="cls-26" d="M634.21,218.68q-.09,1.32-.22,2.7c-1.27,13.64-8.57,28.26-10.4,39.36s-6.25,52.51-6.25,52.51-47.69,8.92-61.78,5.23-19.39-9.55-19.39-9.55V291c9.32-.4,26.82-1.75,28.68-2.73a8.54,8.54,0,0,0,2.73-3l13.58-4.74c2.65,2.8,5.41,4.45,9.27,4.68,7.17.42,23.34-20.67,26.71-28.12C619.33,252.22,628.28,232,634.21,218.68Z"/><path class="cls-27" d="M572,183.25a11.59,11.59,0,0,1-3-2.59c-.51-.75-1.07-1.16-1.63-.78-.93-.75-2.84-2.15-4.23-2.23-1.9-.11-3.37-1.37-4.69-.42s-1.95,4.11-1.95,4.11-.9-.63-2.11,1c-.73,1-2.07,2.31-3,3.4-.65.73-1.11,1.35-1.09,1.67.05.79-1.79,2.74-1.69,3.27s-.79,2.21-1.1,3.21a13.2,13.2,0,0,0-.79,3.53c-.1,1.58.53,2.37,2.69,6.85s4.85,9.44,4.85,9.44l4.08,12.11.52-.41,12-9.46c-1.18-2.61-2.75-6.76-1.33-7.8,2.11-1.54,3.37-10.26,3.37-10.26l.26-.17c0-1.91-.07-4.91.05-7.11C573.47,187.15,572.52,183.46,572,183.25Zm-4.85,5.85c-.32,1.21-.47,3-1.79,2a20.09,20.09,0,0,1-3.69-4.22c0-.21.05-3.48,0-3.91s-.47-1.37.37-1.32a35.45,35.45,0,0,1,4.1,1.22,7.79,7.79,0,0,0,.28.78C567.51,186.36,567.46,187.89,567.14,189.1Z"/><path class="cls-28" d="M584.62,275.72,571,280.46l-2.83,1s-1.37-6.12-.84-9.91c.33-2.36,7.83-8.83,8.28-8.85.45.71,1.34,2.84,1.8,3.51A88,88,0,0,0,584.62,275.72Z"/><path class="cls-29" d="M542.17,264.75l1.36-21.93-5.46,24.33s4.61,1,5.14,1.19,12.44,2,16.87,1.69c2.36-.16-18.35.44,6.49-1.65Z"/><path class="cls-30" d="M631.46,196.08c-2-2.81-7-6.75-12.51-10-4-2.35-10.06-5.75-13.07-7.42,0,1.82-1.7,16.12-4.78,12.91-2.08-2.18-9.07-3.27-13.63-3.75a9.14,9.14,0,0,1-1.7,1.78l-12.54,8.13-.26.17s-1.27,8.72-3.37,10.26c-1.42,1,.15,5.19,1.33,7.8l-12,9.46c.4,2.36,1.3,7.18,2.59,14.52a86.21,86.21,0,0,0,10.71,28.35l.4.65Q573.26,270,574,271a88,88,0,0,0,7.17,9.52c2.65,2.8,5.41,4.45,9.27,4.68,7.17.42,23.34-20.67,26.71-28.12,2.21-4.88,11.16-25.05,17.09-38.41C635,206.57,633.29,198.7,631.46,196.08Z"/><path class="cls-31" d="M599.44,245.51s1.27,1.9.31,3-3.26,3.11-3.26,3.11-6.11-4.81-8.33-9.13a15.07,15.07,0,0,0,2.22-3.15,10.16,10.16,0,0,1,2.37-3.21c.37-.21,2.74-2.32,3.58-2s.24,2.71.22,2.79c.17-.13,3.87-3,5-1a3.71,3.71,0,0,1-.53,4s1.74-.32,1.95,1.21S599.44,245.51,599.44,245.51Z"/><polygon class="cls-32" points="570.93 215.97 586.96 241.6 589.36 238.37 570.93 215.97"/><path class="cls-33" d="M157.78,164.1c6.9,15.12-2.67,29.58-6.73,32.06-6.22,3.81-10.41,3.36-13.43,8.81-2,3.57-.79,8.22.62,13.75a38.62,38.62,0,0,0-5.66-.47,117.31,117.31,0,0,0-25.31,2.33L110.14,204c1.12.19,5.15.89,6.09.93,5.75.31,16-1.21,15.28-7.27s4.29-4.84,8.13-9.08,4.44-6.36,2-12.11-2.72-5.76.3-8.48a27,27,0,0,0,5.15-7c1.82,3.94,2.72,9.39,5.76,8.17S155.76,163.86,157.78,164.1Z"/><path class="cls-34" d="M167.4,154.68c-3.63,4.54-2.72,3.94-4.24,6.36s-3.33,3.33-5.36,3.07h0c-2-.24-1.91,3.9-4.92,5.11s-3.94-4.23-5.76-8.17a27,27,0,0,1-5.15,7c-3,2.72-2.72,2.72-.3,8.48s1.82,7.86-2,12.11-8.88,3-8.13,9.08-9.54,7.58-15.28,7.27a26.71,26.71,0,0,1-3.11-.37c-5.67-.93-12.94-3.21-16-3-3.63.3-10.29-3.33-12.11-8.19S78.68,188,76,185.87s-1.82-6.06-.61-12.72-3.63-5.45-7.27-7.58.91-5.75,4.24-12.11-4.24-5.15-4.24-10.3,4.54-5.14,8.17-6.36,2.12-8.47,5.45-14.23,11.81-.3,11.51-7,1.82-5.75,6.36-7.27,2.91.06,7.7-5.34c6-6.77,11.94,1.88,21.33,1.58s7-1.38,12.45.44,8.19,10.29,10,13.32,9.38,3,10.9,5.45.91,9.38,3.33,12.4,5.45,3.64,2.12,6.67S171,150.14,167.4,154.68Z"/><path class="cls-35" d="M88,283.54s-45.4,4.1-48.18-3.33c-1.91-5.16-.64-13.17,5.3-23.29L68,270.68,76,264.21Z"/><path class="cls-36" d="M142.41,497.12c-.61,16.83-7.76,52.78-9.54,63.31l-.39,2.33s-10.7,1.25-14.7-1c-.06,0,.85.4.82.38-11.09-56.43-1.52-90.7-5.34-106.45-2.19-9.12-3.83-18-4.94-24.74,10.57,1.53,22.63,2,33.34,2.2.11,3.52-1.06,8.14-1.56,10.42C139.17,447.76,143.11,477.93,142.41,497.12Z"/><path class="cls-37" d="M229.13,181.89c-1.72.32,3,12.22,2.81,14v0l1.74,3.58,1.89.95c.51-.71.63-1.36,1-1.88l-.21-4.2C236.1,193.91,230.78,181.59,229.13,181.89Z"/><path class="cls-38" d="M244.78,206c0-2.57.16-2.78-1.22-3.67.48-3.43-1.85-3.42-1.85-3.42s1.63-2.68.61-4.34c-.83-1.29-3.91-.66-5.28-.32l-.67.19,0-.08.21,4.2c.16-.25-2.91,6-3.89,5.39s1-4.46,1-4.46L231.63,194c0,.09-1.14,2-1.16,2.06a16.35,16.35,0,0,1-2,5.49c-.92,1.61-.2,3.22-3.54,7.91s-5.34,17.34-5.34,17.34-32,35.12-50.16,49.44c-3.91,3.09,13.49,16.82,16.76,14.87,9.17-5.49,42.74-53.57,42.74-53.57s10.19-12.8,13.29-19.14A22.6,22.6,0,0,0,244.78,206Z"/><path class="cls-39" d="M177.52,289.22c5.31-8.89,5.09-13.63,6.56-24.79-9-12-29.34-37.37-38.58-43.84-2-2.74-15.76-4.83-37.5-6.94a49,49,0,0,0-32.08,8.08c-8.35,5.61-17.52,12.44-22.14,19.37s-8,12.2-10.62,16.64L68,270.68,76,264.21c.55,3.77,11.84,27.54,6.1,46.13-5.55,18-24.35,35.72-28.48,117l0,0c8.41.59,20.14,2.81,33.47,5.18,6.71,1.19,45,1.35,56.71,1.34h0c20.85-93.19-3.42-115.91-4.81-131.61-.58-6.55,2.74-17.55,6.81-28.16C149.8,276.41,167.28,286.38,177.52,289.22Z"/><path class="cls-40" d="M87.15,432.56c-1.64,4.3-4.46,13.52-8.76,18C72.09,457.14,47,535.13,45,545.81c0,0-.08.69-.11.86-8.9-5.86-10-6.47-16.44-2h0c-.22.19,1.22-.95,1-.75,3.47-19.41,3.91-59.23,7.82-74.48S50.15,442,52.48,439.48c1-1.11,1.89-8.17,2.58-12C63.35,428.2,74.53,430.31,87.15,432.56Z"/><path class="cls-41" d="M42.44,597.53H28.8s-8.54-1.75-9.46-9.82,2.08-13,1.83-17.47c-.17-3.41-1.94-12.06,2.47-15.56C25,553.58,27.05,553,30,553.27c6.32.61,11.2,3.58,11,12.26-.25,8.4,1.3,15.09,3.6,19.58.06.14.14.25.19.39C47.19,590,45.55,597.53,42.44,597.53Z"/><path class="cls-41" d="M47.63,559.15c-.08,3.41-2.08,18.72-3.08,26-2.3-4.49-3.85-11.18-3.6-19.58.22-8.68-4.66-11.65-11-12.26-2.91-.28-4.94.31-6.32,1.41l4.77-10h0c6.49-5.19,8.24-4.35,17.42,2.77C45.88,547.25,47.74,555.1,47.63,559.15Z"/><path class="cls-41" d="M140.92,584.11c-.11.22-.31.58-.53,1-6.32,2.86-11.54,3.49-19.58,3.3-4.24-.11-6.85-1.41-8.46-2.75.61-6,4.16-21.38,5.44-23.87,4,2.22,14.7,1,14.7,1l.39-2.33c1.3,2.14,4.1,14.22,6.07,14.94C141.61,576.32,141.5,583.08,140.92,584.11Z"/></g></svg>