<svg xmlns="http://www.w3.org/2000/svg" xmlns:xlink="http://www.w3.org/1999/xlink" viewBox="0 0 650 650"><defs><style>.cls-1{fill:url(#Безымянный_градиент_263);}.cls-17,.cls-18,.cls-19,.cls-2,.cls-20,.cls-23,.cls-24{opacity:0.5;}.cls-2{fill:url(#Безымянный_градиент_250);}.cls-3{fill:url(#Безымянный_градиент_123);}.cls-4{fill:#1f1844;}.cls-5{fill:url(#Безымянный_градиент_123-2);}.cls-6{fill:url(#Безымянный_градиент_250-2);}.cls-22,.cls-7{fill:none;stroke-miterlimit:10;}.cls-7{stroke:#fff;}.cls-8{fill:url(#Безымянный_градиент_250-3);}.cls-9{fill:url(#Безымянный_градиент_123-3);}.cls-10{fill:#2d1582;}.cls-11{fill:url(#Безымянный_градиент_123-4);}.cls-12{fill:url(#Безымянный_градиент_123-5);}.cls-13{fill:url(#Безымянный_градиент_123-6);}.cls-14{fill:url(#Безымянный_градиент_48);}.cls-15{fill:url(#Безымянный_градиент_4);}.cls-16{fill:url(#Безымянный_градиент_4-2);}.cls-17{fill:url(#Безымянный_градиент_250-4);}.cls-18{fill:url(#Безымянный_градиент_250-5);}.cls-19{fill:url(#Безымянный_градиент_250-6);}.cls-20{fill:url(#Безымянный_градиент_250-7);}.cls-21{fill:#e9e8ee;}.cls-22{stroke:#e8e7ed;stroke-linecap:round;stroke-width:4px;}.cls-23{fill:url(#Безымянный_градиент_250-8);}.cls-24{fill:url(#Безымянный_градиент_250-9);}.cls-25{fill:#e8e7ed;}</style><linearGradient id="Безымянный_градиент_263" x1="16.2" y1="353.57" x2="642.71" y2="353.57" gradientUnits="userSpaceOnUse"><stop offset="0" stop-color="#f0f2f5"/><stop offset="0.99" stop-color="#f5f7f8"/></linearGradient><linearGradient id="Безымянный_градиент_250" x1="437.72" y1="153.79" x2="501.07" y2="153.79" gradientUnits="userSpaceOnUse"><stop offset="0" stop-color="#a7a5ee"/><stop offset="0.44" stop-color="#9d9ce8"/><stop offset="0.89" stop-color="#8988d5"/></linearGradient><linearGradient id="Безымянный_градиент_123" x1="218.82" y1="577.48" x2="245.64" y2="577.48" gradientUnits="userSpaceOnUse"><stop offset="0" stop-color="#753200"/><stop offset="1" stop-color="#a04400"/></linearGradient><linearGradient id="Безымянный_градиент_123-2" x1="-1732.07" y1="1550.09" x2="-1749.53" y2="1519.4" gradientTransform="matrix(-0.65, 0.76, 0.76, 0.65, -2009.75, 880.11)" xlink:href="#Безымянный_градиент_123"/><linearGradient id="Безымянный_градиент_250-2" x1="389.58" y1="574.95" x2="459.11" y2="574.95" gradientTransform="translate(-114.75)" xlink:href="#Безымянный_градиент_250"/><linearGradient id="Безымянный_градиент_250-3" x1="216.89" y1="589.81" x2="279.96" y2="589.81" xlink:href="#Безымянный_градиент_250"/><linearGradient id="Безымянный_градиент_123-3" x1="392.42" y1="142.2" x2="430.34" y2="142.2" xlink:href="#Безымянный_градиент_123"/><linearGradient id="Безымянный_градиент_123-4" x1="339.34" y1="175.96" x2="396.23" y2="175.96" xlink:href="#Безымянный_градиент_123"/><linearGradient id="Безымянный_градиент_123-5" x1="-420.8" y1="454.25" x2="-354.34" y2="423.49" gradientTransform="matrix(-0.96, 0.28, 0.28, 0.96, -195.16, -186.88)" xlink:href="#Безымянный_градиент_123"/><linearGradient id="Безымянный_градиент_123-6" x1="-351.93" y1="424.83" x2="-354.97" y2="427.81" gradientTransform="matrix(-0.96, 0.28, 0.28, 0.96, -195.16, -186.88)" xlink:href="#Безымянный_градиент_123"/><linearGradient id="Безымянный_градиент_48" x1="-351.81" y1="441.73" x2="-375.31" y2="464.79" gradientTransform="matrix(-0.96, 0.28, 0.28, 0.96, -195.16, -186.88)" gradientUnits="userSpaceOnUse"><stop offset="0" stop-color="#a04400"/><stop offset="1" stop-color="#753200"/></linearGradient><linearGradient id="Безымянный_градиент_4" x1="232.53" y1="212.4" x2="343.74" y2="212.4" gradientUnits="userSpaceOnUse"><stop offset="0.01" stop-color="#2d1582"/><stop offset="1" stop-color="#4822d1"/></linearGradient><linearGradient id="Безымянный_градиент_4-2" x1="263.27" y1="185.61" x2="320.19" y2="185.61" xlink:href="#Безымянный_градиент_4"/><linearGradient id="Безымянный_градиент_250-4" x1="319.9" y1="174.7" x2="501.07" y2="174.7" xlink:href="#Безымянный_градиент_250"/><linearGradient id="Безымянный_градиент_250-5" x1="91.89" y1="226.13" x2="215.02" y2="226.13" xlink:href="#Безымянный_градиент_250"/><linearGradient id="Безымянный_градиент_250-6" x1="350.53" y1="338.12" x2="407.39" y2="338.12" xlink:href="#Безымянный_градиент_250"/><linearGradient id="Безымянный_градиент_250-7" x1="471.33" y1="338.12" x2="528.19" y2="338.12" xlink:href="#Безымянный_градиент_250"/><linearGradient id="Безымянный_градиент_250-8" x1="489.84" y1="262" x2="497.48" y2="262" gradientTransform="matrix(1, 0.04, -0.04, 1, 38.14, 23.92)" xlink:href="#Безымянный_градиент_250"/><linearGradient id="Безымянный_градиент_250-9" x1="489.84" y1="283.81" x2="497.48" y2="283.81" gradientTransform="matrix(1, 0.04, -0.04, 1, 38.14, 23.92)" xlink:href="#Безымянный_градиент_250"/></defs><title>1</title><g id="_01" data-name="01"><path class="cls-1" d="M621.32,366.05C566.3,253.58,408.94,88.85,204.48,88.42c-213.36-.44-234,211.17-119,270S32.33,490.55,152.53,564.22c121.66,74.56,381.67,67.56,445.67,9.56S645.08,414.64,621.32,366.05Z"/><path class="cls-2" d="M499.91,223.52S477.76,191,437.72,187.12c0-27.15,1.22-103.06,1.22-103.06s62.47,4.9,62.13,23.23S499.91,223.52,499.91,223.52Z"/><polygon class="cls-3" points="245.64 568.48 245.64 583.73 219.39 586.48 218.82 579.77 221.89 570.3 245.64 568.48"/><path class="cls-4" d="M280,605.73v3.62a6.76,6.76,0,0,1-6.32,6.73,77.17,77.17,0,0,1-17-.85,183.49,183.49,0,0,1-31.25-8c-5.25-1.75-7.75-1.75-8.5-4.75s.18-10.08.18-10.08l31.21,7.12Z"/><polygon class="cls-5" points="297.91 549.02 303.03 562.84 301.07 577.11 297.24 580.51 281.16 575.68 277.21 569.58 281.32 547.94 297.91 549.02"/><path class="cls-4" d="M275,579.77v6.15a4.38,4.38,0,0,0,3.78,4.34c4.32.6,11.27,1.61,15,2.35,5.74,1.12,19.46,6.11,27.19,6.61s16.46.62,20.33-1.87,3-8.36,3-8.36Z"/><path class="cls-6" d="M277.26,563.31s-4,15.22-1.75,17.46,19.08,3.37,23.57,6.24,22.82,7.36,32.55,6.61,12.47-2,12.72-4.61-19.33-6.24-22.82-8.86-5.61-11.85-10.48-15-1.12-8.73-6.24-9-3.74,8-11.35,8.48A68.43,68.43,0,0,1,277.26,563.31Z"/><path class="cls-4" d="M245.89,310.23s-10,10-9.5,33,6.5,80.5,2.5,98-13.5,43.5-15.5,73-4,59.5-4,59.5h29s-5.5-30.5,3-51.5,18.5-55,22.5-65.5a169.15,169.15,0,0,0,5.5-16.37s-7.5,75.88-7.5,93.38,1,33,5.52,32.5,19.48-7,21.48-8.5,4.5-26.5,4-35.5,4-58.5,4-58.5,12.5-38,16-54.5,2.5-85,2.5-85l-5.5-11Z"/><path class="cls-7" d="M296.89,372.73c-9.5,10-17.5,69.25-17.5,69.25"/><path class="cls-8" d="M237.14,577.27c.38-.32.83-.74,1.32-1.21,3.06-2.95,8-8.05,11.68-4.59,4.25,4,2.76,15.88,15.5,22.24,3.81,1.9,17.25,10.78,13.75,13.53s-2.5,2.25-21,1.5-41.5-15-41.5-15,.87-18.75,2.5-18.75-.25,7,5,7.78S237.14,577.27,237.14,577.27Z"/><path class="cls-9" d="M430.14,131.61c-.13.74-2.75.87-6.5,1.5s-4.63,2.5-6,3.37-2.25,2.87-1.23,3.37,5.73-3.37,6.86-3.37,2.37,1.63,2.5,2.25,2,2.75,2.37,4.62a1.79,1.79,0,0,1-1.63,2.13V148c0,1.75-2.62,3.87-3,4.13s-1.87-.5-2.5-1.76-2.74,3-2.74,3-4,4.63-5.5,7.76c-1,2.19-4.4,5.07-6.46,6.59a59.76,59.76,0,0,1-13.89-4.62c.54-2.78,1.66-8.88,1.47-11a8,8,0,0,1,3.29-6.52s1.38-7,1.72-7.2.75-5.68,0-7.55.72-2.38,1.45-2.29a9.42,9.42,0,0,1,4.1,3.92c.84-1.12,2.52-3.38,2.89-4.12.5-1,6.25-7,6.75-7.74s4.51-5.27,7-3.5c1.32.94-1.5,4-3,5.87s-8.63,12.37-7.5,12.63,5.5-4.76,6.85-5.63a6,6,0,0,1,3.4-1.37,34.44,34.44,0,0,1,8.12,0C430.89,128.85,430.27,130.85,430.14,131.61Z"/><path class="cls-10" d="M407.39,167.9c-1.33,17.33-10.67,56.33-19.33,66.33s-58-7-58-7,4.76,96.68-7.91,97-79.76-8-79.76-8,4.33-28.67,5.22-44.33-17-67-19.55-77.17.33-22,5-26.33,28.74-9.52,32.63-9.91c31-3.11,49.32,19.16,54.11,22.23,9.24-1.76,19.34-4,19.34-4l.2,1,3,14.47,1,5c11.16,5.1,27.71,9.33,27.71,9.33l7.13-15.43,2.36-5.1,7.75-16.77,3.09-6.7s.36.2,1,.52l1,.48a60.89,60.89,0,0,0,12.88,4.14Z"/><path class="cls-11" d="M392.14,164.48c-.75,0,3.5,1.37.25,3.63a9.15,9.15,0,0,1-4.09,1.15c-4.08.39-9.29-.27-10.53.09-1.76.5-14,9-12.88,14.76,3.21,0,12.48-.52,15.66,1.92a2.48,2.48,0,0,1,1.09,2c.06,2.1-1.5,2.91-3.45,3.15a28.8,28.8,0,0,1-6.55-.4c-2.37-.25-6.63-.92-8.13.48s-6.87,3.27-10.87,1.52c-2.72-1.19-7.54-.88-10.33-.55l-3-14.47c3.76-1.78,10.3-4.89,12-5.86,2.5-1.37,11.38-5.5,13.62-6.62s11-4.62,12.5-5.12,16.76-2.26,18.38-1.38c1.17.64-.93,3.37-2.46,4.83A3.33,3.33,0,0,1,392.14,164.48Z"/><path class="cls-12" d="M268.86,163.24c-.22-1.82-.7-6.53-1.51-12-.56-3.76-1.15-7.65-1.6-10.66,0-.26-.08-.51-.12-.75a38.56,38.56,0,0,0-1-4.83l-.25-.25c-7.23-7.15-8-13-5.28-15.81a5.37,5.37,0,0,1,1.24-.94h0s-4.44-10.47-2.54-20.48C260.33,84.29,277,79.35,288,79.38s23.48,9.72,23.24,22c-.09,4.89-1,9.57-.34,13.82s4.31,10.57,3.07,18.14c-1.75,10.85-11.34,16.38-17.67,18.17a21,21,0,0,1-2.46.54l.21,1.8.18,1.46.19,1.58a17.38,17.38,0,0,1,.23,4.44,11.66,11.66,0,0,1-10.43,9.6C274.94,172.07,269.4,167.66,268.86,163.24Z"/><path class="cls-13" d="M265,122.62s-2.74-2.83-4-.2,1.84,6.38,1.84,6.38Z"/><path class="cls-4" d="M269.62,127.55l.42,3c7.67,1.86,25.8,8.32,28.76,7.94,3.76-.48,3.76-5,6-4.6s2.66,3,4,2.62c.7-.2,4.53-4.2,5.52-6.44,0,0-.29,7.77-.44,9.16-.33,3.23-5.43,11-5.43,11a3.46,3.46,0,0,1-2.4,1.62l-8.78,1.5-5-1.23c-6.88-1.47-24.29-10-24.83-11.75a42.93,42.93,0,0,1-1.77-9.78Z"/><path class="cls-14" d="M265.82,141.11a38.24,38.24,0,0,0,28.49,14.69l-.18-1.46-.21-1.8c-8-1.79-17.77-6.61-29.47-17.27l.25.25a38.56,38.56,0,0,1,1,4.83C265.74,140.6,265.79,140.85,265.82,141.11Z"/><path class="cls-15" d="M262.88,221.38c-5.43.33-30.34-16.92-30.34-16.92s19.25,20.25,28.57,22.5,82.64-29.25,82.64-29.25S268.31,221,262.88,221.38Z"/><path class="cls-16" d="M263.27,182.21s2.26,7,4.51,7.75,36.7-6,46.85-7.75c1.75-.3,3.64-.65,5.56-1l-49.71,5.18-7.21-5.18"/><path class="cls-17" d="M319.9,130.09V232.34s94.88,27,180-8.82c0-56.76,1.16-116.23,1.16-116.23C473.25,154.38,319.9,130.09,319.9,130.09Z"/><polygon class="cls-18" points="215.02 296.47 91.89 275.78 91.89 155.8 215.02 163.56 215.02 296.47"/><polygon class="cls-19" points="407.39 369.12 350.53 383.63 350.53 302.68 407.39 292.62 407.39 369.12"/><polygon class="cls-20" points="528.19 369.12 471.33 383.63 471.33 302.68 528.19 292.62 528.19 369.12"/><polygon class="cls-21" points="116.87 268.22 102.22 265.68 102.22 188.74 116.87 190.2 116.87 268.22"/><polygon class="cls-21" points="143.82 272.91 128.41 270.23 128.41 216.63 143.82 218.53 143.82 272.91"/><polygon class="cls-21" points="172.18 277.84 155.96 275.02 155.96 203.16 172.18 204.91 172.18 277.84"/><polygon class="cls-21" points="202.07 283.04 184.97 280.07 184.97 179.99 202.07 181.44 202.07 283.04"/><polyline class="cls-22" points="328.94 218.53 342.12 194.39 362.27 218.53 390.48 175.27 409.44 218.53 420.27 196.9 433.6 207.64 454.94 156.31"/><path class="cls-21" d="M520,313.36l-9,2.19c-2.43.59-4.29-1.83-4.13-5.42h0c.16-3.59,2.27-6.92,4.69-7.45l9-1.94c2.31-.5,4,1.9,3.89,5.35h0C524.3,309.55,522.32,312.8,520,313.36Z"/><path class="cls-23" d="M523.81,306.24c-.14,3.17-2,6.16-4.08,6.67s-3.78-1.67-3.64-4.9,2-6.22,4.15-6.69S524,303.07,523.81,306.24Z"/><path class="cls-21" d="M519.06,335.13l-9,2.62c-2.43.71-4.3-1.62-4.14-5.21h0c.16-3.59,2.27-7,4.7-7.66l9-2.37c2.31-.61,4.05,1.7,3.9,5.16h0C523.36,331.12,521.38,334.46,519.06,335.13Z"/><path class="cls-24" d="M522.87,327.84c-.14,3.17-2,6.24-4.09,6.85s-3.79-1.49-3.65-4.71,2-6.3,4.16-6.87S523,324.67,522.87,327.84Z"/><path class="cls-25" d="M445.88,111.44a14.5,14.5,0,0,0,14.49,14.49v-4a10.48,10.48,0,0,1-4.47-20l-1.26-3.83A14.5,14.5,0,0,0,445.88,111.44Z"/><path class="cls-25" d="M470.83,110.89c0,.18,0,.37,0,.55a10.43,10.43,0,0,1-.52,3.25l3.94.8a14.49,14.49,0,0,0,.57-3.65Z"/><path class="cls-25" d="M474.85,111.44A14.5,14.5,0,0,0,460.37,97v4a10.49,10.49,0,0,1,10.46,9.93l4,1C474.84,111.7,474.85,111.57,474.85,111.44Z"/><line class="cls-22" x1="357.54" y1="310.23" x2="401.2" y2="303.12"/><line class="cls-22" x1="357.54" y1="322.73" x2="401.2" y2="315.18"/><line class="cls-22" x1="357.54" y1="335.23" x2="401.2" y2="327.25"/><line class="cls-22" x1="357.54" y1="347.73" x2="401.2" y2="339.32"/><line class="cls-22" x1="357.54" y1="360.23" x2="401.2" y2="351.38"/><line class="cls-22" x1="357.54" y1="372.73" x2="401.2" y2="363.45"/><line class="cls-22" x1="477.2" y1="308.78" x2="490.93" y2="306.67"/><line class="cls-22" x1="477.2" y1="317.92" x2="494.4" y2="315.03"/><line class="cls-22" x1="477.2" y1="327.05" x2="497.86" y2="323.39"/><line class="cls-22" x1="477.2" y1="336.19" x2="501.33" y2="331.75"/><line class="cls-22" x1="477.2" y1="345.32" x2="504.79" y2="340.1"/><line class="cls-22" x1="477.2" y1="354.46" x2="508.25" y2="348.46"/><line class="cls-22" x1="477.2" y1="363.6" x2="511.72" y2="356.82"/><line class="cls-22" x1="477.2" y1="372.73" x2="515.18" y2="365.18"/></g></svg>