<svg xmlns="http://www.w3.org/2000/svg" xmlns:xlink="http://www.w3.org/1999/xlink" viewBox="0 0 650 650"><defs><style>.cls-1{fill:url(#Безымянный_градиент_263);}.cls-2{fill:url(#Безымянный_градиент_5);}.cls-18,.cls-29,.cls-3,.cls-39,.cls-45,.cls-47,.cls-49,.cls-5{fill:none;stroke-miterlimit:10;}.cls-3{stroke-width:0.93px;stroke:url(#Безымянный_градиент_10);}.cls-4{fill:url(#Безымянный_градиент_17);}.cls-5{stroke-width:2.67px;stroke:url(#Безымянный_градиент_164);}.cls-6{fill:url(#Безымянный_градиент_5-2);}.cls-7{fill:url(#Безымянный_градиент_5-3);}.cls-8{fill:url(#Безымянный_градиент_5-4);}.cls-9{fill:url(#Безымянный_градиент_5-5);}.cls-10{fill:url(#Безымянный_градиент_5-6);}.cls-11{fill:url(#Безымянный_градиент_5-7);}.cls-12{fill:url(#Безымянный_градиент_18);}.cls-13{fill:url(#Безымянный_градиент_33);}.cls-14{fill:url(#Безымянный_градиент_33-2);}.cls-15{fill:url(#Безымянный_градиент_33-3);}.cls-16{fill:url(#Безымянный_градиент_17-2);}.cls-17{fill:url(#Безымянный_градиент_33-4);}.cls-18{stroke-width:1.55px;stroke:url(#Безымянный_градиент_33-5);}.cls-19{fill:url(#Безымянный_градиент_33-6);}.cls-20{fill:url(#Безымянный_градиент_17-3);}.cls-21{fill:url(#Безымянный_градиент_33-7);}.cls-22{fill:url(#Безымянный_градиент_11);}.cls-23{fill:url(#Безымянный_градиент_16);}.cls-24{fill:url(#Безымянный_градиент_170);}.cls-25{fill:#fff;}.cls-26{fill:url(#Безымянный_градиент_170-2);}.cls-27{fill:url(#Безымянный_градиент_123);}.cls-28{fill:#191337;}.cls-29{stroke:#f3f6fd;}.cls-29,.cls-45{stroke-linecap:round;}.cls-30{fill:url(#Безымянный_градиент_170-3);}.cls-31{fill:url(#Безымянный_градиент_170-4);}.cls-32{fill:url(#Безымянный_градиент_216);}.cls-33{fill:url(#Безымянный_градиент_40);}.cls-34{fill:url(#Безымянный_градиент_123-2);}.cls-35{fill:url(#Безымянный_градиент_45);}.cls-36{fill:url(#Безымянный_градиент_51);}.cls-37{fill:url(#Безымянный_градиент_271);}.cls-38{fill:#1f1844;}.cls-39{stroke:#17ff44;stroke-width:1.95px;}.cls-40{fill:url(#Безымянный_градиент_16-2);}.cls-41{fill:url(#Безымянный_градиент_16-3);}.cls-42{fill:url(#Безымянный_градиент_45-2);}.cls-43{fill:url(#Безымянный_градиент_40-2);}.cls-44{fill:url(#Безымянный_градиент_269);}.cls-45,.cls-49{stroke:#fff;}.cls-46{fill:url(#Безымянный_градиент_123-3);}.cls-47{stroke:#d6d9e8;stroke-width:5.49px;}.cls-48{fill:url(#Безымянный_градиент_269-2);}.cls-49{stroke-width:0.76px;}.cls-50{fill:url(#Безымянный_градиент_123-4);}.cls-51{fill:url(#Безымянный_градиент_48);}</style><linearGradient id="Безымянный_градиент_263" x1="9.39" y1="351.53" x2="635.9" y2="351.53" gradientUnits="userSpaceOnUse"><stop offset="0" stop-color="#f0f2f5"/><stop offset="0.99" stop-color="#f5f7f8"/></linearGradient><linearGradient id="Безымянный_градиент_5" x1="95.66" y1="508.87" x2="71.13" y2="322.69" gradientUnits="userSpaceOnUse"><stop offset="0" stop-color="#1f1844"/><stop offset="0.99" stop-color="#3d3c99"/></linearGradient><linearGradient id="Безымянный_градиент_10" x1="94.43" y1="504.07" x2="72.85" y2="340.31" gradientUnits="userSpaceOnUse"><stop offset="0" stop-color="#3f3d9e"/><stop offset="0.99" stop-color="#423e9f"/></linearGradient><linearGradient id="Безымянный_градиент_17" x1="107.01" y1="440.38" x2="198.05" y2="419.46" gradientUnits="userSpaceOnUse"><stop offset="0.01" stop-color="#bbc0d9"/><stop offset="1" stop-color="#d6dbf8"/></linearGradient><linearGradient id="Безымянный_градиент_164" x1="509.6" y1="-0.38" x2="579.27" y2="12.38" gradientTransform="translate(-391.11 547.05) rotate(-10.18)" gradientUnits="userSpaceOnUse"><stop offset="0" stop-color="#bac6d8"/><stop offset="0.99" stop-color="#d6dbf8"/></linearGradient><linearGradient id="Безымянный_градиент_5-2" x1="93.93" y1="444.2" x2="66.01" y2="416.77" xlink:href="#Безымянный_градиент_5"/><linearGradient id="Безымянный_градиент_5-3" x1="93.05" y1="467.25" x2="60.56" y2="455.94" xlink:href="#Безымянный_градиент_5"/><linearGradient id="Безымянный_градиент_5-4" x1="95.47" y1="444.13" x2="125.01" y2="420.88" xlink:href="#Безымянный_градиент_5"/><linearGradient id="Безымянный_градиент_5-5" x1="93.32" y1="467.3" x2="121.99" y2="453.56" xlink:href="#Безымянный_градиент_5"/><linearGradient id="Безымянный_градиент_5-6" x1="98.44" y1="488.87" x2="60.25" y2="484.31" xlink:href="#Безымянный_градиент_5"/><linearGradient id="Безымянный_градиент_5-7" x1="94.2" y1="491.55" x2="120.28" y2="475.61" xlink:href="#Безымянный_градиент_5"/><linearGradient id="Безымянный_градиент_18" x1="103.98" y1="383.99" x2="95.05" y2="420.49" gradientUnits="userSpaceOnUse"><stop offset="0.01" stop-color="#3d3c99"/><stop offset="1" stop-color="#1f1844"/></linearGradient><linearGradient id="Безымянный_градиент_33" x1="2231.5" y1="-739.97" x2="2243.29" y2="-739.97" gradientTransform="translate(-965.04 2543.23) rotate(-45.37)" gradientUnits="userSpaceOnUse"><stop offset="0" stop-color="#e0e4eb"/><stop offset="0.99" stop-color="#f3f6fd"/></linearGradient><linearGradient id="Безымянный_градиент_33-2" x1="3654.33" y1="-446.45" x2="3666.24" y2="-446.45" gradientTransform="translate(-616.27 4084.8) rotate(-72.22)" xlink:href="#Безымянный_градиент_33"/><linearGradient id="Безымянный_градиент_33-3" x1="-582.28" y1="3075.84" x2="-570.48" y2="3075.84" gradientTransform="matrix(0.63, 0.78, -0.78, 0.63, 2861.01, -1061.65)" xlink:href="#Безымянный_градиент_33"/><linearGradient id="Безымянный_градиент_17-2" x1="110.46" y1="466.07" x2="122.76" y2="453.45" xlink:href="#Безымянный_градиент_17"/><linearGradient id="Безымянный_градиент_33-4" x1="-436.79" y1="3744.07" x2="-424.7" y2="3744.07" gradientTransform="matrix(0.5, 0.87, -0.77, 0.45, 3204.44, -840.22)" xlink:href="#Безымянный_градиент_33"/><linearGradient id="Безымянный_градиент_33-5" x1="633.21" y1="-102.4" x2="650.59" y2="-102.4" gradientTransform="translate(-500.65 709.79) rotate(-13.38)" xlink:href="#Безымянный_градиент_33"/><linearGradient id="Безымянный_градиент_33-6" x1="4564.48" y1="-15.44" x2="4576.84" y2="-15.44" gradientTransform="matrix(0.04, -0.93, 1, 0.04, -87.58, 4744.12)" xlink:href="#Безымянный_градиент_33"/><linearGradient id="Безымянный_градиент_17-3" x1="110.74" y1="485.89" x2="123.02" y2="472.27" xlink:href="#Безымянный_градиент_17"/><linearGradient id="Безымянный_градиент_33-7" x1="-152.6" y1="4572.44" x2="-139.21" y2="4572.44" gradientTransform="matrix(0.35, 0.94, -0.74, 0.28, 3551.71, -647.14)" xlink:href="#Безымянный_градиент_33"/><linearGradient id="Безымянный_градиент_11" x1="105.9" y1="383.46" x2="96.97" y2="419.96" gradientUnits="userSpaceOnUse"><stop offset="0" stop-color="#e6eaf1"/><stop offset="0.99" stop-color="#f3f6fd"/></linearGradient><linearGradient id="Безымянный_градиент_16" x1="69.4" y1="543.61" x2="137.42" y2="527.99" gradientUnits="userSpaceOnUse"><stop offset="0.11" stop-color="#8988d5"/><stop offset="0.56" stop-color="#9d9ce8"/><stop offset="1" stop-color="#a7a5ee"/></linearGradient><linearGradient id="Безымянный_градиент_170" x1="89.41" y1="226.71" x2="404.7" y2="226.71" gradientUnits="userSpaceOnUse"><stop offset="0.01" stop-color="#bbbfd9"/><stop offset="1" stop-color="#d6dbf8"/></linearGradient><linearGradient id="Безымянный_градиент_170-2" x1="417.5" y1="487.06" x2="443.91" y2="487.06" xlink:href="#Безымянный_градиент_170"/><linearGradient id="Безымянный_градиент_123" x1="443.24" y1="526.82" x2="430.91" y2="505.16" gradientUnits="userSpaceOnUse"><stop offset="0" stop-color="#753200"/><stop offset="1" stop-color="#a04400"/></linearGradient><linearGradient id="Безымянный_градиент_170-3" x1="515.37" y1="481.4" x2="542.23" y2="481.4" xlink:href="#Безымянный_градиент_170"/><linearGradient id="Безымянный_градиент_170-4" x1="478.91" y1="488.89" x2="503.84" y2="488.89" xlink:href="#Безымянный_градиент_170"/><linearGradient id="Безымянный_градиент_216" x1="480.33" y1="432.06" x2="480.33" y2="267.04" gradientUnits="userSpaceOnUse"><stop offset="0" stop-color="#201f4f"/><stop offset="0.39" stop-color="#3d3c99"/><stop offset="1" stop-color="#403da0"/></linearGradient><linearGradient id="Безымянный_градиент_40" x1="532.16" y1="353.11" x2="547.16" y2="354.61" gradientUnits="userSpaceOnUse"><stop offset="0.11" stop-color="#343381"/><stop offset="0.56" stop-color="#3d3c99"/><stop offset="1" stop-color="#403da0"/></linearGradient><linearGradient id="Безымянный_градиент_123-2" x1="338.04" y1="549.93" x2="353.62" y2="520.88" xlink:href="#Безымянный_градиент_123"/><linearGradient id="Безымянный_градиент_45" x1="367.89" y1="312.15" x2="502.39" y2="293.65" gradientUnits="userSpaceOnUse"><stop offset="0" stop-color="#bdbdbd"/><stop offset="0.55" stop-color="#ccc"/><stop offset="0.91" stop-color="#d9d9d9"/></linearGradient><linearGradient id="Безымянный_градиент_51" x1="417.56" y1="347.7" x2="408.62" y2="321.27" gradientUnits="userSpaceOnUse"><stop offset="0" stop-color="#753200"/><stop offset="0.05" stop-color="#793300"/><stop offset="0.38" stop-color="#8e3d00"/><stop offset="0.7" stop-color="#9c4200"/><stop offset="1" stop-color="#a04400"/></linearGradient><linearGradient id="Безымянный_градиент_271" x1="271.79" y1="325.6" x2="406.33" y2="325.6" gradientUnits="userSpaceOnUse"><stop offset="0.01" stop-color="#bbbfd9"/><stop offset="0.29" stop-color="#cacde2"/><stop offset="0.84" stop-color="#f2f3f8"/><stop offset="1" stop-color="#fff"/></linearGradient><linearGradient id="Безымянный_градиент_16-2" x1="567.3" y1="469.56" x2="585.33" y2="469.56" xlink:href="#Безымянный_градиент_16"/><linearGradient id="Безымянный_градиент_16-3" x1="258.97" y1="469.56" x2="275.8" y2="469.56" xlink:href="#Безымянный_градиент_16"/><linearGradient id="Безымянный_градиент_45-2" x1="426.13" y1="353.82" x2="520.53" y2="353.82" xlink:href="#Безымянный_градиент_45"/><linearGradient id="Безымянный_градиент_40-2" x1="422.05" y1="380.43" x2="422.05" y2="363.38" xlink:href="#Безымянный_градиент_40"/><linearGradient id="Безымянный_градиент_269" x1="388" y1="352.23" x2="420.4" y2="309.86" gradientUnits="userSpaceOnUse"><stop offset="0" stop-color="#fff"/><stop offset="0.16" stop-color="#f2f3f8"/><stop offset="0.71" stop-color="#cacde2"/><stop offset="0.99" stop-color="#bbbfd9"/></linearGradient><linearGradient id="Безымянный_градиент_123-3" x1="471.7" y1="289.99" x2="468.66" y2="337.54" xlink:href="#Безымянный_градиент_123"/><linearGradient id="Безымянный_градиент_269-2" x1="452.27" y1="345.19" x2="480.35" y2="345.19" xlink:href="#Безымянный_градиент_269"/><linearGradient id="Безымянный_градиент_123-4" x1="400.48" y1="239.88" x2="481.87" y2="202.2" xlink:href="#Безымянный_градиент_123"/><linearGradient id="Безымянный_градиент_48" x1="484.88" y1="223.94" x2="456.1" y2="252.19" gradientUnits="userSpaceOnUse"><stop offset="0" stop-color="#a04400"/><stop offset="1" stop-color="#753200"/></linearGradient></defs><title>1</title><g id="Слой_2" data-name="Слой 2"><path class="cls-1" d="M614.5,364c-55-112.47-212.37-277.21-416.84-277.63-213.36-.44-234,211.17-119,270S25.52,488.51,145.72,562.18c121.66,74.56,381.67,67.56,445.67,9.56S638.27,412.6,614.5,364Z"/><path class="cls-2" d="M95.94,510.2s27-30.06,24.14-41.91S134,442,134.3,424.78c.37-19.55-10.07-14.32-13.69-22.68-5.36-12.39,6.57-23.36-11.46-28.1-12.31-3.24-21,3.08-19.84-12.15s-4.39-34.08-14.25-40.92C61,311.15,32.3,310.39,42,330.09c10.15,20.71,1.2,54.81-1.16,64.15C15.8,492.94,95.94,510.2,95.94,510.2Z"/><path class="cls-3" d="M65.81,341.24c3.09,25.48,35,66.2,20.57,93.41S93.85,504,93.85,504"/><path class="cls-4" d="M177.78,453.27c-17.54,6.2,1.45,28.89-17.73,39.11s-43.77,15.4-44.9,10.44c-.08-.33-1.11-3.62-2.2-8.43-.25-1.11-.5-2.31-.75-3.57-.06-.35-.13-.71-.2-1.07a97.08,97.08,0,0,1-1.45-11.61c0-.12,0-.24,0-.36-.09-1.55-.12-3.11-.09-4.66s.11-3,.27-4.43c.57-5.52,2.15-10.61,5.38-14.26a15.27,15.27,0,0,1,2.8-2.51c13.33-9.27,18.65-4.77,18.55-18.47-.18-23.48,6.51-27,14.38-24.67s14,3,15.17-5.71-6-47.36,11.92-47.29c31,.1,15.31,39.62,12.18,46-7.5,15.37,8.1,17.78,11.81,29S195.31,447.07,177.78,453.27Z"/><path class="cls-5" d="M111.72,536.56s-4.71-43.22,28.23-67.44c14.88-10.94,42.54-50,40-92.28"/><path class="cls-6" d="M65.54,416.35c4.09-6.94,33.51,21.68,28.36,28S61.64,423,65.54,416.35Z"/><path class="cls-7" d="M58.11,455.38c.59-8.08,36.1,3.54,34.28,11.52S57.55,463.08,58.11,455.38Z"/><path class="cls-8" d="M125.15,419.71c6.29,4.93-24.76,31.67-30.3,25.74S119.16,415,125.15,419.71Z"/><path class="cls-9" d="M121.89,453.41c5.29,6-24.7,21-29.2,14.23S116.86,447.72,121.89,453.41Z"/><path class="cls-10" d="M60.47,484.42c-1.55-7.42,37.59-3.15,37.93,4.49S62,491.49,60.47,484.42Z"/><path class="cls-11" d="M120,475.78c4.06,6.86-24,24-27.25,16.51S116.12,469.24,120,475.78Z"/><path class="cls-12" d="M104.52,383c7.9.58-2.32,40.39-10.13,38.55S97,382.43,104.52,383Z"/><path class="cls-13" d="M68.5,414.46c4.09-6.94,33.51,21.68,28.36,28S64.6,421.07,68.5,414.46Z"/><path class="cls-14" d="M60.48,453.72c.59-8.08,36.1,3.54,34.28,11.52S59.92,461.42,60.48,453.72Z"/><path class="cls-15" d="M126.35,417.94c6.29,4.93-24.76,31.67-30.3,25.74S120.35,413.24,126.35,417.94Z"/><path class="cls-16" d="M111.37,467.15c.55-5.42,2.06-10.42,5.17-14,3.75-.75,6.9-.6,8.28,1C127.75,457.42,119.79,463.54,111.37,467.15Z"/><path class="cls-17" d="M123.38,452.14c5.29,6-24.7,21-29.2,14.23S118.34,446.45,123.38,452.14Z"/><path class="cls-18" d="M96.5,412.14s.9,20.68-1.84,38.73,4.17,48.6,15.42,58.36"/><path class="cls-19" d="M60.47,483c-1.55-7.42,37.59-3.15,37.93,4.49S62,490.07,60.47,483Z"/><path class="cls-20" d="M112.8,488.89c-.06-.34-.12-.7-.19-1.05a97.42,97.42,0,0,1-1.39-11.4c0-.12,0-.24,0-.35,6.39-3.54,13.21-5.32,15-2.26C128.49,477.67,120.67,484.74,112.8,488.89Z"/><path class="cls-21" d="M124.78,470.88c4.06,6.86-24,24-27.25,16.51S120.91,464.34,124.78,470.88Z"/><path class="cls-22" d="M106.43,382.45c7.9.58-2.32,40.39-10.13,38.55S98.9,381.9,106.43,382.45Z"/><path class="cls-23" d="M113.21,573.48H88.88a21.91,21.91,0,0,1-21.71-19l-6-44.78a5.06,5.06,0,0,1,5-5.73h69.8a5.06,5.06,0,0,1,5,5.73l-6,44.78A21.91,21.91,0,0,1,113.21,573.48Z"/><rect class="cls-24" x="89.41" y="118.46" width="315.29" height="216.5" rx="11.45" ry="11.45"/><rect class="cls-25" x="98.38" y="127.74" width="297.35" height="197.93" rx="6.84" ry="6.84"/><path class="cls-26" d="M423.61,544a6.11,6.11,0,0,1-6-7L432,430.14l11.94,1.35L429.65,538.74C429.22,541.74,423.61,544,423.61,544Z"/><polygon class="cls-27" points="419.63 511.36 424.97 521.02 436.8 528.69 441.77 528.02 448.47 513.02 446.47 506.19 437.97 502.19 419.63 511.36"/><path class="cls-28" d="M435,381.93c-10,1.7-38.69,6.66-46.17,16-5.76,7.2-10,28.31-20.09,53.09-2.93-7.36-6.65-20.71-8.51-27.7-2.59-9.74-5-31.45,17.12-37.08C391.91,382.52,423.92,381.21,435,381.93Z"/><path class="cls-29" d="M417.5,381.24s-24.64,2.49-35.78,16.08C373,408,365.1,440.51,365.1,440.51"/><path class="cls-30" d="M530.16,536.13,515.37,427.24l10-4L542.13,534c.69,3.94-2.34,4.66-5.33,5.2S530.86,540.15,530.16,536.13Z"/><path class="cls-31" d="M491.55,549.17,478.91,425h12.34l12.57,123.25c.28,3.83-2.64,3.68-5.52,4.11C495.09,552.89,491.86,553.51,491.55,549.17Z"/><path class="cls-32" d="M537.34,410.59c-2.61,19.29-31,22-64,23.07-1,.5-37.46.28-54.44-5.44l.59-130.62c0-11,4.71-29.23,20.81-29.5,27-.45,77.15-4.57,96.78,1.5,4.49,16.12,7.76,33.92.28,80.48C533.07,376.72,538.6,401.33,537.34,410.59Z"/><path class="cls-33" d="M529.9,277.69c6,18,5.24,28.4-2.75,57.47-13.31,48.45,8.54,73.32-37.63,97.75,28-1.6,45.6-5.91,47.82-22.33,1.26-9.26-4.27-33.87,0-60.52,5.51-34.29,15.79-62.31,2.12-78.87C535.68,266.61,527.88,271.61,529.9,277.69Z"/><path class="cls-34" d="M363.8,526.42c-7.81-2.89-18.25-9-18.25-9s-13,14-14.45,15.37c4.81,1.9,2.39,15.8,6.37,18s14.51-7.32,19.58-6.16C357.51,540.18,362.43,528.84,363.8,526.42Z"/><path class="cls-28" d="M440.6,503.86l-21,10.18c-2.61-2-4-6.8-5.83-9.64-3.3-5.11-6.83-4.33-12.32-12.36l-13.7-23.34,28.9-43.92,18.62,50.57c1.6,4.11,1,15.38,1,15.38C437.74,494.08,444,502.55,440.6,503.86Z"/><path class="cls-35" d="M537.34,317.31c-7.05,1.19-28.81,4.09-35.62,1.06.71,6.74,1.44,18.69,1.44,18.69s-58.16-5.55-80,2.77c0-.71,0-1.55.05-2.47.27-7.78,1.55-21.8,1.55-21.8s-10.53-2-13.64-5.17a3.65,3.65,0,0,1-.54-.68c.48-4,5.3-20.75,14.18-34.47,7.49-11.57,18.14-16.83,37.37-19.56l25.45-1.77s25.33-2.68,37,10.08S537.34,317.31,537.34,317.31Z"/><path class="cls-36" d="M424.79,315.56s0,12.24,1.06,21c-20.13,9.07-24.43,16.27-24.17,17.75l-4.29-17.63,8.43-.91,5.33-25.37C414.26,313.54,424.79,315.56,424.79,315.56Z"/><path class="cls-37" d="M399.27,363.17H312.79L296.94,295a5.7,5.7,0,0,1,5.56-7h80.84Z"/><path class="cls-38" d="M513.78,380.1s10.64,28.3-23.18,40.18c-21.87,7.68-63,6.1-63,6.1L381.3,512.23a14.43,14.43,0,0,1-6.72,6.26l-1.29.58c-1.58,2.26-6.31,14-8.86,12.93l-24.3-11.37c-2.17-.89,3.24-8.75,4.28-10.85.72-1.46-.46-10.24.63-14.79,7.5-31.5,29.13-87.34,36.51-96.45,7.53-9.3,19-13.41,29-15.11,10.86-1.85,24.18-6.41,24.18-6.41Z"/><path class="cls-39" d="M424.18,378.75s-3.62-.45-9.27-.82"/><path class="cls-40" d="M580.63,561.87H572c-2.59,0-4.69-1.41-4.69-3.16V377.24h18V558.72C585.33,560.46,583.23,561.87,580.63,561.87Z"/><path class="cls-41" d="M273,561.87H261.76c-1.54,0-2.79-.9-2.79-2V377.24H275.8V559.86C275.8,561,274.55,561.87,273,561.87Z"/><polygon class="cls-42" points="510.8 372.46 426.13 363.17 426.13 335.17 520.53 343.05 510.8 372.46"/><path class="cls-43" d="M259.25,363h325.6a10.45,10.45,0,0,1,10.45,10.45v8.47a0,0,0,0,1,0,0H248.8a0,0,0,0,1,0,0v-8.47A10.45,10.45,0,0,1,259.25,363Z"/><path class="cls-44" d="M435.86,358.91,435,363H399.27l-18.68-71.39a2.84,2.84,0,0,1,2.74-3.55h0a2.84,2.84,0,0,1,2.76,2.17l11.3,46.47,4.29,17.63v0a1.45,1.45,0,0,0,0,.17l0,.06h30.6A3.59,3.59,0,0,1,435.86,358.91Z"/><circle class="cls-25" cx="344.3" cy="327.41" r="7.26"/><line class="cls-45" x1="501.78" y1="318.01" x2="499.41" y2="304.3"/><line class="cls-45" x1="424.79" y1="315.56" x2="426.91" y2="304.3"/><path class="cls-46" d="M535.69,317.61c-.09,8.57-.72,28-4.39,36.3-4.78,10.81-11.33,10.67-29.23,7.66S454.52,347.9,445.3,347.9s-15,6.67-15,6.67H401.54c-.26-1.48-.15-9.1,21.7-17.22,3.66-1.55,14.21-2.83,23.35-3.49,25.1-1.81,56,2.77,56,2.77s-.12-11.53-.83-18.27C508.48,321.38,529.45,318.55,535.69,317.61Z"/><path class="cls-47" d="M477.14,338.28s9.14-.75,9.14,6.91-9.14,7.74-9.14,7.74"/><path class="cls-48" d="M478.21,363H455.47l-3.19-32.35a3,3,0,0,1,3.12-3.21h21.8a3,3,0,0,1,3.13,3.12Z"/><path class="cls-45" d="M455.05,263.15s1.42,9,16.92,8.17,20.21-13,20.21-13"/><path class="cls-28" d="M302.06,538.55s-9.48-2.09-13.11-.79-4.56,4-4.82,6.89,2.79,7,14.57,11.36a356.38,356.38,0,0,0,36.82,10.93c3.86.78,10.4,1.94,16,1.62A7.28,7.28,0,0,0,358,563a19.9,19.9,0,0,1,1.16-3.36c1-2,.62-4.36,1.2-6s2-13-1.2-14.64-8.36,8.07-15.44,7.27-7.87-9.66-7.87-9.66,3.38-3.09,1.56-5.26.27-3.89-1.17-4.75-6.52,2.17-6.52,2.17-16.35,6.72-22.76,9.43C305.73,538.71,302.06,538.55,302.06,538.55Z"/><path class="cls-45" d="M288.39,547c21,12,45.42,12.25,45.42,12.25,6.83,1.59,13.65,6.13,22.41.92l.77-.42"/><path class="cls-28" d="M420.66,515.53s12.13,3.65,14.5,7.6,10.47-8.1,6.9-14.91,1.3-5.7,4.65-2.93,6.06.76,8.4,2.75,7.15,6.4,3.64,14.68-11.37,11.84-14.49,18.05-2,18.86-6.79,23.59-13.89,10.78-24.21,5.73-1.1-18.86,1.3-22.3,2.87-15.2,3-20S416.89,517,420.66,515.53Z"/><path class="cls-49" d="M446.42,506.8s6.79,2.06,4.44,10.36S439.93,531.8,439,540.58s-.8,16.56-9.29,22.92-12.2,5.47-12.2,5.47"/><path class="cls-50" d="M488.59,253c-.36-2.22-1.39-7.92-2.28-14.58-.62-4.62-1.25-9.39-1.74-13.08,0-.32-.07-.63-.12-.93a47.22,47.22,0,0,1-.47-6c.07-.13.15-.26.21-.38,6.09-10.87,5.05-18,.84-20.4a6.58,6.58,0,0,0-1.78-.69h0s1.68-13.82-4-25c-7.46-14.75-28.72-14.91-41.7-11.14s-24.33,19.4-19.88,33.79c1.77,5.72,4.44,10.92,5.09,16.15s-1.48,13.9,2.54,22.39c5.75,12.18,18.9,15.43,27,15.39a25.69,25.69,0,0,0,3.07-.2l.36,2.19.29,1.78.31,1.93c.7,4.33,1.24,5.31,1.24,5.31a14.28,14.28,0,0,0,15.54,7.76C484.43,265.46,489.45,258.39,488.59,253Z"/><path class="cls-51" d="M484.57,225.34a46.83,46.83,0,0,1-28.54,27l-.29-1.78-.36-2.19C464.2,243.5,474,234.52,484.2,218c-.06.13-.14.26-.21.38a47.22,47.22,0,0,0,.47,6C484.49,224.71,484.53,225,484.57,225.34Z"/><path class="cls-38" d="M475.59,211.27l.53,3.7c-8.4,4.79-27.53,18.54-31.15,19.1-4.59.71-6.13-4.62-8.6-3.38s-2.11,4.45-3.83,4.45c-.89,0-6.76-3.41-8.68-5.71,0,0,3,9,3.62,10.63,1.48,3.68,10.12,11.12,10.12,11.12a4.24,4.24,0,0,0,3.37,1.09L451.81,251l5.45-3.14c7.59-4.06,25.17-20.06,25.24-22.25a52.58,52.58,0,0,0-1.23-12.11Z"/></g></svg>