<svg xmlns="http://www.w3.org/2000/svg" xmlns:xlink="http://www.w3.org/1999/xlink" viewBox="0 0 650 650"><defs><style>.cls-1{fill:url(#Безымянный_градиент_263);}.cls-2{fill:url(#Безымянный_градиент_5);}.cls-18,.cls-27,.cls-29,.cls-3,.cls-30,.cls-31,.cls-39,.cls-40,.cls-41,.cls-42,.cls-43,.cls-44,.cls-45,.cls-46,.cls-47,.cls-48,.cls-49,.cls-5,.cls-50,.cls-51,.cls-52,.cls-53,.cls-68{fill:none;stroke-miterlimit:10;}.cls-3{stroke-width:0.73px;stroke:url(#Безымянный_градиент_10);}.cls-4{fill:url(#Безымянный_градиент_17);}.cls-5{stroke-width:2.1px;stroke:url(#Безымянный_градиент_164);}.cls-6{fill:url(#Безымянный_градиент_5-2);}.cls-7{fill:url(#Безымянный_градиент_5-3);}.cls-8{fill:url(#Безымянный_градиент_5-4);}.cls-9{fill:url(#Безымянный_градиент_5-5);}.cls-10{fill:url(#Безымянный_градиент_5-6);}.cls-11{fill:url(#Безымянный_градиент_5-7);}.cls-12{fill:url(#Безымянный_градиент_18);}.cls-13{fill:url(#Безымянный_градиент_33);}.cls-14{fill:url(#Безымянный_градиент_33-2);}.cls-15{fill:url(#Безымянный_градиент_33-3);}.cls-16{fill:url(#Безымянный_градиент_17-2);}.cls-17{fill:url(#Безымянный_градиент_33-4);}.cls-18{stroke-width:1.22px;stroke:url(#Безымянный_градиент_33-5);}.cls-19{fill:url(#Безымянный_градиент_33-6);}.cls-20{fill:url(#Безымянный_градиент_17-3);}.cls-21{fill:url(#Безымянный_градиент_33-7);}.cls-22{fill:url(#Безымянный_градиент_11);}.cls-23{fill:url(#Безымянный_градиент_16);}.cls-24{fill:#1f1844;}.cls-25{fill:#737cbd;}.cls-26{fill:#f0eff3;}.cls-27{stroke:#fff;stroke-width:6px;}.cls-28{fill:#fff;}.cls-29,.cls-30,.cls-31,.cls-39,.cls-40,.cls-41,.cls-42,.cls-43,.cls-44,.cls-45,.cls-46,.cls-47,.cls-48,.cls-49,.cls-50,.cls-51,.cls-52,.cls-53,.cls-68{stroke-linecap:round;}.cls-29,.cls-30,.cls-31,.cls-39,.cls-40,.cls-41,.cls-42,.cls-43,.cls-44,.cls-45,.cls-46,.cls-47,.cls-48,.cls-49,.cls-50,.cls-51,.cls-53,.cls-68{stroke-width:5px;}.cls-29{stroke:url(#Безымянный_градиент_139);}.cls-30{stroke:url(#Безымянный_градиент_139-2);}.cls-31{stroke:url(#Безымянный_градиент_139-3);}.cls-32{fill:url(#Безымянный_градиент_29);}.cls-33{fill:url(#Безымянный_градиент_29-2);}.cls-34{fill:url(#Безымянный_градиент_48);}.cls-35{fill:url(#Безымянный_градиент_157);}.cls-36{fill:url(#Безымянный_градиент_162);}.cls-37{fill:url(#Безымянный_градиент_157-2);}.cls-38{fill:url(#Безымянный_градиент_30);}.cls-39{stroke:url(#Безымянный_градиент_139-4);}.cls-40{stroke:url(#Безымянный_градиент_139-5);}.cls-41{stroke:url(#Безымянный_градиент_139-6);}.cls-42{stroke:url(#Безымянный_градиент_139-7);}.cls-43{stroke:url(#Безымянный_градиент_139-8);}.cls-44{stroke:url(#Безымянный_градиент_139-9);}.cls-45{stroke:url(#Безымянный_градиент_139-10);}.cls-46{stroke:url(#Безымянный_градиент_39);}.cls-47{stroke:url(#Безымянный_градиент_39-2);}.cls-48{stroke:url(#Безымянный_градиент_39-3);}.cls-49{stroke:url(#Безымянный_градиент_39-4);}.cls-50{stroke:url(#Безымянный_градиент_20);}.cls-51{stroke:url(#Безымянный_градиент_39-5);}.cls-52{stroke-width:4.91px;stroke:url(#Безымянный_градиент_39-6);}.cls-53{stroke:url(#Безымянный_градиент_20-2);}.cls-54{fill:url(#Безымянный_градиент_163);}.cls-55{fill:url(#Безымянный_градиент_9);}.cls-56{fill:#f7e0dd;}.cls-57{fill:url(#Безымянный_градиент_157-3);}.cls-58{fill:url(#Безымянный_градиент_7);}.cls-59{fill:url(#Безымянный_градиент_9-2);}.cls-60{fill:url(#Безымянный_градиент_9-3);}.cls-61{fill:url(#Безымянный_градиент_157-4);}.cls-62{fill:url(#Безымянный_градиент_157-5);}.cls-63{fill:url(#Безымянный_градиент_157-6);}.cls-64{fill:url(#Безымянный_градиент_12);}.cls-65{fill:url(#Безымянный_градиент_9-4);}.cls-66{fill:url(#Безымянный_градиент_9-5);}.cls-67{fill:url(#Безымянный_градиент_12-2);}.cls-68{stroke:url(#Безымянный_градиент_28);}</style><linearGradient id="Безымянный_градиент_263" x1="7.5" y1="355.9" x2="634.01" y2="355.9" gradientUnits="userSpaceOnUse"><stop offset="0" stop-color="#f0f2f5"/><stop offset="0.99" stop-color="#f5f7f8"/></linearGradient><linearGradient id="Безымянный_градиент_5" x1="95.65" y1="518.89" x2="76.36" y2="372.54" gradientUnits="userSpaceOnUse"><stop offset="0" stop-color="#1f1844"/><stop offset="0.99" stop-color="#3d3c99"/></linearGradient><linearGradient id="Безымянный_градиент_10" x1="94.68" y1="515.12" x2="77.71" y2="386.39" gradientUnits="userSpaceOnUse"><stop offset="0" stop-color="#3f3d9e"/><stop offset="0.99" stop-color="#423e9f"/></linearGradient><linearGradient id="Безымянный_градиент_17" x1="104.56" y1="465.06" x2="176.13" y2="448.61" gradientUnits="userSpaceOnUse"><stop offset="0.01" stop-color="#bbc0d9"/><stop offset="1" stop-color="#d6dbf8"/></linearGradient><linearGradient id="Безымянный_градиент_164" x1="149.2" y1="1020.98" x2="203.96" y2="1031.01" gradientTransform="translate(-220.07 -500.73) rotate(-10.18)" gradientUnits="userSpaceOnUse"><stop offset="0" stop-color="#bac6d8"/><stop offset="0.99" stop-color="#d6dbf8"/></linearGradient><linearGradient id="Безымянный_градиент_5-2" x1="94.29" y1="468.06" x2="72.34" y2="446.49" xlink:href="#Безымянный_градиент_5"/><linearGradient id="Безымянный_градиент_5-3" x1="93.59" y1="486.18" x2="68.05" y2="477.29" xlink:href="#Безымянный_градиент_5"/><linearGradient id="Безымянный_градиент_5-4" x1="95.49" y1="468" x2="118.72" y2="449.72" xlink:href="#Безымянный_градиент_5"/><linearGradient id="Безымянный_градиент_5-5" x1="93.8" y1="486.21" x2="116.35" y2="475.41" xlink:href="#Безымянный_градиент_5"/><linearGradient id="Безымянный_градиент_5-6" x1="97.83" y1="503.17" x2="67.81" y2="499.59" xlink:href="#Безымянный_градиент_5"/><linearGradient id="Безымянный_градиент_5-7" x1="94.49" y1="505.28" x2="115" y2="492.75" xlink:href="#Безымянный_градиент_5"/><linearGradient id="Безымянный_градиент_18" x1="102.19" y1="420.73" x2="95.17" y2="449.42" gradientUnits="userSpaceOnUse"><stop offset="0.01" stop-color="#3d3c99"/><stop offset="1" stop-color="#1f1844"/></linearGradient><linearGradient id="Безымянный_градиент_33" x1="-564.46" y1="2964.65" x2="-555.19" y2="2964.65" gradientTransform="translate(-1633.29 -2023.32) rotate(-45.37)" gradientUnits="userSpaceOnUse"><stop offset="0" stop-color="#e0e4eb"/><stop offset="0.99" stop-color="#f3f6fd"/></linearGradient><linearGradient id="Безымянный_градиент_33-2" x1="-1801.08" y1="4051.85" x2="-1791.72" y2="4051.85" gradientTransform="translate(-3229.12 -2465.13) rotate(-72.22)" xlink:href="#Безымянный_градиент_33"/><linearGradient id="Безымянный_градиент_33-3" x1="-1554.42" y1="-1956.04" x2="-1545.14" y2="-1956.04" gradientTransform="matrix(0.63, 0.78, -0.78, 0.63, -437.18, 2890.99)" xlink:href="#Безымянный_градиент_33"/><linearGradient id="Безымянный_градиент_17-2" x1="107.28" y1="485.25" x2="116.95" y2="475.33" xlink:href="#Безымянный_градиент_17"/><linearGradient id="Безымянный_градиент_33-4" x1="-2025.36" y1="-2528.57" x2="-2015.85" y2="-2528.57" gradientTransform="matrix(0.5, 0.87, -0.77, 0.45, -829.06, 3352.91)" xlink:href="#Безымянный_градиент_33"/><linearGradient id="Безымянный_градиент_33-5" x1="128.61" y1="1218.16" x2="142.27" y2="1218.16" gradientTransform="translate(-314.56 -672.01) rotate(-13.38)" xlink:href="#Безымянный_градиент_33"/><linearGradient id="Безымянный_градиент_33-6" x1="-2570.38" y1="4328.12" x2="-2560.66" y2="4328.12" gradientTransform="matrix(0.04, -0.93, 1, 0.04, -4161.93, -2071.19)" xlink:href="#Безымянный_градиент_33"/><linearGradient id="Безымянный_градиент_17-3" x1="107.5" y1="500.83" x2="117.15" y2="490.12" xlink:href="#Безымянный_градиент_17"/><linearGradient id="Безымянный_градиент_33-7" x1="-2523.45" y1="-3115.6" x2="-2512.93" y2="-3115.6" gradientTransform="matrix(0.35, 0.94, -0.74, 0.28, -1327.5, 3711.12)" xlink:href="#Безымянный_градиент_33"/><linearGradient id="Безымянный_градиент_11" x1="103.69" y1="420.31" x2="96.67" y2="449" gradientUnits="userSpaceOnUse"><stop offset="0" stop-color="#e6eaf1"/><stop offset="0.99" stop-color="#f3f6fd"/></linearGradient><linearGradient id="Безымянный_градиент_16" x1="75.01" y1="546.2" x2="128.47" y2="533.92" gradientUnits="userSpaceOnUse"><stop offset="0.11" stop-color="#8988d5"/><stop offset="0.56" stop-color="#9d9ce8"/><stop offset="1" stop-color="#a7a5ee"/></linearGradient><linearGradient id="Безымянный_градиент_139" x1="-6105.11" y1="-357.65" x2="-6061.43" y2="-357.65" gradientTransform="matrix(-0.99, -0.17, -0.17, 0.99, -5788.78, -480.38)" gradientUnits="userSpaceOnUse"><stop offset="0" stop-color="#201f4f"/><stop offset="0.26" stop-color="#27275a"/><stop offset="0.72" stop-color="#393c76"/><stop offset="1" stop-color="#464b8b"/></linearGradient><linearGradient id="Безымянный_градиент_139-2" x1="-6098.57" y1="-356.52" x2="-6054.89" y2="-356.52" xlink:href="#Безымянный_градиент_139"/><linearGradient id="Безымянный_градиент_139-3" x1="-6112.79" y1="-361.39" x2="-6069.11" y2="-361.39" xlink:href="#Безымянный_градиент_139"/><linearGradient id="Безымянный_градиент_29" x1="245.09" y1="237.26" x2="256.32" y2="175.71" gradientUnits="userSpaceOnUse"><stop offset="0.28" stop-color="#201f4f"/><stop offset="1" stop-color="#201f4f"/></linearGradient><linearGradient id="Безымянный_градиент_29-2" x1="205.92" y1="197.98" x2="267.77" y2="169.35" xlink:href="#Безымянный_градиент_29"/><linearGradient id="Безымянный_градиент_48" x1="-7606.39" y1="1231.8" x2="-7628.05" y2="1253.06" gradientTransform="matrix(-0.98, 0.21, 0.21, 0.98, -7459.08, 631.01)" gradientUnits="userSpaceOnUse"><stop offset="0" stop-color="#a04400"/><stop offset="1" stop-color="#753200"/></linearGradient><linearGradient id="Безымянный_градиент_157" x1="281.51" y1="236.12" x2="224.85" y2="223.5" gradientUnits="userSpaceOnUse"><stop offset="0" stop-color="#a96e46"/><stop offset="1" stop-color="#ffd0b9"/></linearGradient><linearGradient id="Безымянный_градиент_162" x1="231.39" y1="216.51" x2="256.89" y2="230.68" gradientUnits="userSpaceOnUse"><stop offset="0" stop-color="#a96e46"/><stop offset="1" stop-color="#ffd0b9" stop-opacity="0"/></linearGradient><linearGradient id="Безымянный_градиент_157-2" x1="-7606.44" y1="1216.68" x2="-7609.24" y2="1219.42" gradientTransform="matrix(-0.98, 0.21, 0.21, 0.98, -7459.08, 631.01)" xlink:href="#Безымянный_градиент_157"/><linearGradient id="Безымянный_градиент_30" x1="243.7" y1="182.1" x2="279.56" y2="182.1" gradientUnits="userSpaceOnUse"><stop offset="0" stop-color="#ffd0b9" stop-opacity="0"/><stop offset="1" stop-color="#a96e46"/></linearGradient><linearGradient id="Безымянный_градиент_139-4" x1="208.61" y1="192.79" x2="252.3" y2="192.79" gradientTransform="matrix(1, 0, 0, 1, 0, 0)" xlink:href="#Безымянный_градиент_139"/><linearGradient id="Безымянный_градиент_139-5" x1="214.32" y1="199.42" x2="261.75" y2="199.42" gradientTransform="matrix(1, 0, 0, 1, 0, 0)" xlink:href="#Безымянный_градиент_139"/><linearGradient id="Безымянный_градиент_139-6" x1="201.59" y1="194.78" x2="245.28" y2="194.78" gradientTransform="matrix(1, 0, 0, 1, 0, 0)" xlink:href="#Безымянный_градиент_139"/><linearGradient id="Безымянный_градиент_139-7" x1="139.12" y1="-85.85" x2="183.13" y2="-85.85" gradientTransform="translate(53.43 261.22) rotate(4.85)" xlink:href="#Безымянный_градиент_139"/><linearGradient id="Безымянный_градиент_139-8" x1="212.56" y1="192.33" x2="260.58" y2="192.33" gradientTransform="matrix(1, 0, 0, 1, 0, 0)" xlink:href="#Безымянный_градиент_139"/><linearGradient id="Безымянный_градиент_139-9" x1="220.09" y1="197.61" x2="251.43" y2="197.61" gradientTransform="matrix(1, 0, 0, 1, 0, 0)" xlink:href="#Безымянный_градиент_139"/><linearGradient id="Безымянный_градиент_139-10" x1="225.8" y1="199.18" x2="268.12" y2="199.18" gradientTransform="matrix(1, 0, 0, 1, 0, 0)" xlink:href="#Безымянный_градиент_139"/><linearGradient id="Безымянный_градиент_39" x1="249.49" y1="190.32" x2="289.37" y2="190.32" gradientUnits="userSpaceOnUse"><stop offset="0" stop-color="#464b8b"/><stop offset="0.28" stop-color="#393c76"/><stop offset="0.74" stop-color="#27275a"/><stop offset="1" stop-color="#201f4f"/></linearGradient><linearGradient id="Безымянный_градиент_39-2" x1="293.48" y1="444.7" x2="329.45" y2="444.7" gradientTransform="matrix(1, -0.08, 0.08, 1, -68.48, -231.21)" xlink:href="#Безымянный_градиент_39"/><linearGradient id="Безымянный_градиент_39-3" x1="-3356.35" y1="2319.84" x2="-3317.34" y2="2319.84" gradientTransform="matrix(-0.82, -0.57, 0.57, -0.82, -3833.84, 177.77)" xlink:href="#Безымянный_градиент_39"/><linearGradient id="Безымянный_градиент_39-4" x1="-3230.41" y1="2407.99" x2="-3189.59" y2="2407.99" gradientTransform="matrix(-0.78, -0.62, 0.62, -0.78, -3793.12, 67.72)" xlink:href="#Безымянный_градиент_39"/><linearGradient id="Безымянный_градиент_20" x1="-3311.02" y1="2314.06" x2="-3280.44" y2="2314.06" gradientTransform="translate(-3810.1 201.8) rotate(-145.12)" gradientUnits="userSpaceOnUse"><stop offset="0" stop-color="#464b8b"/><stop offset="0.3" stop-color="#3d417d"/><stop offset="0.88" stop-color="#252558"/><stop offset="1" stop-color="#201f4f"/></linearGradient><linearGradient id="Безымянный_градиент_39-5" x1="284.06" y1="754.54" x2="320.31" y2="754.54" gradientTransform="matrix(0.98, -0.2, -0.2, -0.98, 132.42, 996.76)" xlink:href="#Безымянный_градиент_39"/><linearGradient id="Безымянный_градиент_39-6" x1="359.98" y1="641.4" x2="399.2" y2="641.4" gradientTransform="matrix(0.95, -0.25, -0.25, -0.95, 82.21, 879.93)" xlink:href="#Безымянный_градиент_39"/><linearGradient id="Безымянный_градиент_20-2" x1="318.47" y1="760.82" x2="355.98" y2="760.82" gradientTransform="matrix(0.98, -0.19, -0.19, -0.98, 101.01, 1009.2)" xlink:href="#Безымянный_градиент_20"/><linearGradient id="Безымянный_градиент_163" x1="222.14" y1="566.37" x2="219.5" y2="529.73" gradientUnits="userSpaceOnUse"><stop offset="0" stop-color="#ffd0b9"/><stop offset="1" stop-color="#a96e46"/></linearGradient><linearGradient id="Безымянный_градиент_9" x1="209.83" y1="549.77" x2="213.52" y2="549.77" gradientUnits="userSpaceOnUse"><stop offset="0.05" stop-color="#f7e5e3"/><stop offset="1" stop-color="#f7d6d2"/></linearGradient><linearGradient id="Безымянный_градиент_157-3" x1="271.1" y1="527.96" x2="277.25" y2="568.12" xlink:href="#Безымянный_градиент_157"/><linearGradient id="Безымянный_градиент_7" x1="278.53" y1="580.12" x2="276.78" y2="559.87" xlink:href="#Безымянный_градиент_9"/><linearGradient id="Безымянный_градиент_9-2" x1="261.72" y1="555.13" x2="266.24" y2="555.13" xlink:href="#Безымянный_градиент_9"/><linearGradient id="Безымянный_градиент_9-3" x1="183.37" y1="427.28" x2="301.24" y2="427.28" xlink:href="#Безымянный_градиент_9"/><linearGradient id="Безымянный_градиент_157-4" x1="229.69" y1="320.46" x2="278.81" y2="320.46" xlink:href="#Безымянный_градиент_157"/><linearGradient id="Безымянный_градиент_157-5" x1="317.19" y1="284.03" x2="424.35" y2="284.03" xlink:href="#Безымянный_градиент_157"/><linearGradient id="Безымянный_градиент_157-6" x1="200.28" y1="357.29" x2="227.15" y2="357.29" xlink:href="#Безымянный_градиент_157"/><linearGradient id="Безымянный_градиент_12" x1="253.53" y1="337.39" x2="254.53" y2="331.23" gradientUnits="userSpaceOnUse"><stop offset="0" stop-color="#f7e5e3"/><stop offset="1" stop-color="#d4aca7"/></linearGradient><linearGradient id="Безымянный_градиент_9-4" x1="237.37" y1="335.43" x2="239.2" y2="330.6" xlink:href="#Безымянный_градиент_9"/><linearGradient id="Безымянный_градиент_9-5" x1="272.45" y1="334.66" x2="276.57" y2="334.66" xlink:href="#Безымянный_градиент_9"/><linearGradient id="Безымянный_градиент_12-2" x1="220.41" y1="365.36" x2="231.83" y2="365.36" xlink:href="#Безымянный_градиент_12"/><linearGradient id="Безымянный_градиент_28" x1="251.15" y1="165.27" x2="267.34" y2="165.27" gradientUnits="userSpaceOnUse"><stop offset="0" stop-color="#363972"/><stop offset="0.37" stop-color="#3d417d"/><stop offset="1" stop-color="#464b8b"/></linearGradient></defs><title>1</title><g id="Слой_3" data-name="Слой 3"><path class="cls-1" d="M612.61,368.39c-55-112.47-212.37-277.21-416.84-277.63-213.36-.44-234,211.17-119,270S23.62,492.88,143.83,566.55c121.66,74.56,381.67,67.56,445.67,9.56S636.38,417,612.61,368.39Z"/><path class="cls-2" d="M95.87,519.93s21.23-23.63,19-32.95,10.92-20.63,11.18-34.19c.29-15.36-7.92-11.26-10.76-17.83-4.21-9.74,5.16-18.36-9-22.09-9.68-2.54-16.48,2.42-15.6-9.55s-3.45-26.79-11.2-32.17c-11.08-7.68-33.61-8.29-26,7.2,8,16.28.95,43.09-.91,50.43C32.87,506.37,95.87,519.93,95.87,519.93Z"/><path class="cls-3" d="M72.18,387.12c2.43,20,27.55,52,16.17,73.43s5.87,54.5,5.87,54.5"/><path class="cls-4" d="M160.2,475.18c-13.79,4.87,1.14,22.71-13.94,30.74S111.86,518,111,514.13c-.06-.26-.87-2.85-1.73-6.63-.2-.87-.39-1.82-.59-2.81,0-.28-.1-.56-.16-.84a76.31,76.31,0,0,1-1.14-9.13c0-.09,0-.19,0-.28-.07-1.22-.09-2.44-.07-3.66s.09-2.34.21-3.48c.45-4.34,1.69-8.34,4.23-11.21a12,12,0,0,1,2.2-2c10.48-7.29,14.66-3.75,14.58-14.52-.14-18.46,5.12-21.22,11.3-19.39s11,2.33,11.92-4.49-4.68-37.23,9.37-37.17c24.34.08,12,31.14,9.57,36.18-5.9,12.08,6.37,14,9.28,22.78S174,470.31,160.2,475.18Z"/><path class="cls-5" d="M108.27,540.66s-3.7-34,22.19-53c11.7-8.6,33.44-39.31,31.47-72.54"/><path class="cls-6" d="M72,446.16c3.22-5.45,26.34,17,22.29,22S68.9,451.36,72,446.16Z"/><path class="cls-7" d="M66.13,476.84c.46-6.35,28.38,2.78,26.94,9.06S65.69,482.89,66.13,476.84Z"/><path class="cls-8" d="M118.83,448.81C123.77,452.68,99.36,473.7,95,469S114.12,445.12,118.83,448.81Z"/><path class="cls-9" d="M116.27,475.3c4.16,4.7-19.41,16.51-23,11.18S112.31,470.82,116.27,475.3Z"/><path class="cls-10" d="M68,499.68c-1.22-5.83,29.55-2.47,29.82,3.53S69.15,505.23,68,499.68Z"/><path class="cls-11" d="M114.77,492.88c3.19,5.4-18.86,18.86-21.42,13S111.73,487.74,114.77,492.88Z"/><path class="cls-12" d="M102.61,419.93c6.21.45-1.82,31.75-8,30.3S96.69,419.5,102.61,419.93Z"/><path class="cls-13" d="M74.3,444.68c3.22-5.45,26.34,17,22.29,22S71.23,449.87,74.3,444.68Z"/><path class="cls-14" d="M68,475.54c.46-6.35,28.38,2.78,26.94,9.06S67.55,481.59,68,475.54Z"/><path class="cls-15" d="M119.77,447.41c4.94,3.87-19.47,24.9-23.82,20.24S115.06,443.72,119.77,447.41Z"/><path class="cls-16" d="M108,486.1c.43-4.26,1.62-8.19,4.06-11,3-.59,5.43-.47,6.51.75C120.87,478.45,114.61,483.26,108,486.1Z"/><path class="cls-17" d="M117.43,474.3c4.16,4.7-19.41,16.51-23,11.18S113.47,469.82,117.43,474.3Z"/><path class="cls-18" d="M96.3,442.85s.71,16.26-1.44,30.45,3.28,38.2,12.12,45.88"/><path class="cls-19" d="M68,498.56c-1.22-5.83,29.55-2.47,29.82,3.53S69.15,504.11,68,498.56Z"/><path class="cls-20" d="M109.12,503.18c0-.27-.1-.55-.15-.83a76.58,76.58,0,0,1-1.09-9c0-.09,0-.19,0-.28,5-2.78,10.39-4.18,11.8-1.78C121.45,494.37,115.31,499.92,109.12,503.18Z"/><path class="cls-21" d="M118.53,489c3.19,5.4-18.86,18.86-21.42,13S115.5,483.89,118.53,489Z"/><path class="cls-22" d="M104.11,419.52c6.21.45-1.82,31.75-8,30.3S98.19,419.09,104.11,419.52Z"/><path class="cls-23" d="M109.44,569.68H90.32a17.22,17.22,0,0,1-17.07-14.92l-4.75-35.2a4,4,0,0,1,3.94-4.51h54.87a4,4,0,0,1,3.94,4.51l-4.75,35.2A17.22,17.22,0,0,1,109.44,569.68Z"/><rect class="cls-24" x="326.01" y="124.39" width="214.33" height="443.86" rx="16.49" ry="16.49"/><rect class="cls-25" x="338.61" y="142.61" width="189.14" height="407.42" rx="12.18" ry="12.18"/><path class="cls-24" d="M387.3,136.19h91.77a0,0,0,0,1,0,0v0a19.19,19.19,0,0,1-19.19,19.19H406.49a19.19,19.19,0,0,1-19.19-19.19v0A0,0,0,0,1,387.3,136.19Z"/><rect class="cls-26" x="461.96" y="166.45" width="53.58" height="16.88" rx="4.2" ry="4.2"/><rect class="cls-26" x="353.09" y="199.17" width="63.18" height="18.01" rx="4.2" ry="4.2"/><rect class="cls-26" x="358.29" y="171.67" width="52.78" height="6.44" rx="3.22" ry="3.22"/><rect class="cls-26" x="358.4" y="227.81" width="149.55" height="225.42" rx="7.07" ry="7.07"/><rect class="cls-26" x="358.4" y="474.02" width="149.55" height="39.89" rx="7.07" ry="7.07"/><circle class="cls-27" cx="433.18" cy="300.11" r="54.78"/><rect class="cls-28" x="373.18" y="371.12" width="119.99" height="29.19" rx="7.41" ry="7.41"/><rect class="cls-28" x="373.18" y="412.3" width="119.99" height="29.19" rx="7.41" ry="7.41"/><path class="cls-29" d="M253.6,163l5.69-1.17a1.44,1.44,0,0,1,1.58.77l2,4.12a1.44,1.44,0,0,0,1,.78l3.18.55a1.44,1.44,0,0,1,1.19,1.51l-.25,3.78a1.44,1.44,0,0,0,1.19,1.51l2.88.5a1.44,1.44,0,0,1,1.19,1.49l-.16,3.11a1.44,1.44,0,0,0,.68,1.29l3.45,2.14a1.44,1.44,0,0,1,.32,2.17l-2.21,2.52a1.44,1.44,0,0,0,.25,2.12l3.94,2.79a1.44,1.44,0,0,1,.41,1.9l-1.7,2.91a1.44,1.44,0,0,0,.14,1.65l2,2.43a1.44,1.44,0,0,1-.29,2.11l-2.16,1.46a1.44,1.44,0,0,0-.36,2l3.37,4.66a1.44,1.44,0,0,1-.1,1.8l-2.06,2.29a1.44,1.44,0,0,0-.06,1.85l3.18,4a1.44,1.44,0,0,1,0,1.81l-3,3.63a1.44,1.44,0,0,0-.06,1.75l1.68,2.35a1.44,1.44,0,0,1,.08,1.54l-1.47,2.59c-.1.19.15.63.17,1.22a8.41,8.41,0,0,1,0,1.13"/><path class="cls-30" d="M247,163l5.69-1.17a1.44,1.44,0,0,1,1.58.77l2,4.12a1.44,1.44,0,0,0,1,.78l3.18.55a1.44,1.44,0,0,1,1.19,1.51l-.25,3.78a1.44,1.44,0,0,0,1.19,1.51l2.88.5a1.44,1.44,0,0,1,1.19,1.49l-.16,3.11a1.44,1.44,0,0,0,.68,1.29l3.45,2.14a1.44,1.44,0,0,1,.32,2.17l-2.21,2.52a1.44,1.44,0,0,0,.25,2.12L273,193a1.44,1.44,0,0,1,.41,1.9l-1.7,2.91a1.44,1.44,0,0,0,.14,1.65l2,2.43a1.44,1.44,0,0,1-.29,2.11l-2.16,1.46a1.44,1.44,0,0,0-.36,2l3.37,4.66a1.44,1.44,0,0,1-.1,1.8l-2.06,2.29a1.44,1.44,0,0,0-.06,1.85l3.18,4a1.44,1.44,0,0,1,0,1.81l-3,3.63a1.44,1.44,0,0,0-.06,1.75l1.68,2.35a1.44,1.44,0,0,1,.08,1.54l-1.47,2.59c-.1.19.15.63.17,1.22a8.41,8.41,0,0,1,0,1.13"/><path class="cls-31" d="M261.8,160.67l5.69-1.17a1.44,1.44,0,0,1,1.58.77l2,4.12a1.44,1.44,0,0,0,1,.78l3.18.55a1.44,1.44,0,0,1,1.19,1.51l-.25,3.78a1.44,1.44,0,0,0,1.19,1.51l2.88.5a1.44,1.44,0,0,1,1.19,1.49l-.16,3.11a1.44,1.44,0,0,0,.68,1.29l3.45,2.14a1.44,1.44,0,0,1,.32,2.17l-2.21,2.52a1.44,1.44,0,0,0,.25,2.12l3.94,2.79a1.44,1.44,0,0,1,.41,1.9l-1.7,2.91a1.44,1.44,0,0,0,.14,1.65l2,2.43a1.44,1.44,0,0,1-.29,2.11l-2.16,1.46a1.44,1.44,0,0,0-.36,2l3.37,4.66a1.44,1.44,0,0,1-.1,1.8l-2.06,2.29a1.44,1.44,0,0,0-.06,1.85l3.18,4a1.44,1.44,0,0,1,0,1.81l-3,3.63a1.44,1.44,0,0,0-.06,1.75l1.68,2.35a1.44,1.44,0,0,1,.08,1.54l-1.47,2.59c-.1.19.15.63.17,1.22a8.41,8.41,0,0,1,0,1.13"/><path class="cls-32" d="M274.11,176c-19.26-16.86-49.89-7.44-54.71,14.23-1,4.37-1.67,11.18-2,18.68a31.94,31.94,0,0,0,37.06,33c5.34-.88,9.61-1.25,11.32-.62C288.1,226,290.58,191.67,274.11,176Z"/><path class="cls-33" d="M280,184.65c-.1,1.16-.25,2.32-.41,3.45-1.54-5.91-11.62-12.6-23-11.56,0,0,0,1.38-2.15,1.77s-3.1-2.3-3.58,0-.47,5.39-3.1,5.39-4.3,1.67-4.53,3.34,4.2,7.67,2,9.15c-2.54,1.69-4.38,8-4.38,8s-2-14.65-9.87-6.07c-.55,1.57-1,3.16-1.42,4.74a5.52,5.52,0,0,1,1.49-5.23,4.78,4.78,0,0,1,1.2-.79,40.88,40.88,0,0,1-1.91-12c0-2.26-5.09-10.53-4.49-12.85,3.12-12,24.12-19.3,34.28-18.6S280.94,173.36,280,184.65Z"/><path class="cls-34" d="M235.72,218A35.25,35.25,0,0,0,261,233.22l-.07-1.36-.08-1.67c-7.26-2.14-15.94-7.16-26.05-17.69l.22.25a35.55,35.55,0,0,1,.62,4.51C235.68,217.49,235.7,217.72,235.72,218Z"/><path class="cls-35" d="M280.53,214.22c-2.27,9.88-11.43,14.38-17.36,15.64-.57.11-1.11.2-1.61.25a5.69,5.69,0,0,1-.68.08l.08,1.67.15,2.13.13,1.89,8.09,53.72a2.49,2.49,0,0,1-3.84,2.62C257,286.31,238.19,242,238,239.05c0,0-.87-4.55-2.07-18.38-.07-.87-.14-1.77-.22-2.71,0-.24,0-.47-.07-.7,0-.46-.1-1-.17-1.59a20.75,20.75,0,0,0-.45-2.92,1.64,1.64,0,0,1-.21-.25c-3.32-3.74-5-7-5.38-9.64.22-.91.48-1.83.76-2.73a7,7,0,0,1,2.94-4c2.82-1.75,4.35-1.22,5.18-.17a.92.92,0,0,0,1.63-.34,44,44,0,0,1,3.74-10.2c2.73-5.13,7-10.07,13.72-11.41,1.22-.24,11.89-1.65,15.06.57,2.38,1.67,6,8.11,7.08,13.5h0c-.13.92-.27,1.82-.4,2.71a29.1,29.1,0,0,0-.35,6.52C279.16,201.31,282.13,207.33,280.53,214.22Z"/><path class="cls-36" d="M261,231.87s-16.72-2-25-11.2c-.07-.87-.14-1.77-.22-2.7,0-.24,0-.47-.06-.7,0-.47-.1-1-.17-1.59,10.15,8.19,18.77,12.47,26.07,14.44-.24,0-.47.06-.68.08Z"/><path class="cls-37" d="M236.17,201.36s-2.35-2.77-3.69-.43,1.3,6,1.3,6Z"/><path class="cls-38" d="M279.56,188.1h0c-.13.92-.27,1.82-.4,2.71-2-3.23-7.25-10.6-13.53-11.59-5.67-.88-14.43,2.23-21.93,6.21,2.73-5.13,7-10.07,13.72-11.41,1.22-.24,11.89-1.65,15.06.57C274.86,176.27,278.43,182.71,279.56,188.1Z"/><path class="cls-39" d="M249.8,155.7l-5.41-2.12a1.44,1.44,0,0,0-1.68.49L240,157.78a1.44,1.44,0,0,1-1.16.59H235.6a1.44,1.44,0,0,0-1.43,1.28l-.4,3.76a1.44,1.44,0,0,1-1.43,1.28h-2.92A1.44,1.44,0,0,0,228,166l-.37,3.09a1.44,1.44,0,0,1-.89,1.16L223,171.73a1.44,1.44,0,0,0-.69,2.08l1.75,2.86a1.44,1.44,0,0,1-.61,2l-4.36,2.08a1.44,1.44,0,0,0-.73,1.8l1.18,3.15a1.44,1.44,0,0,1-.42,1.6l-2.43,2.05a1.44,1.44,0,0,0-.07,2.13l1.88,1.81a1.44,1.44,0,0,1,0,2.06l-4.11,4a1.44,1.44,0,0,0-.21,1.79l1.64,2.61a1.44,1.44,0,0,1-.25,1.83l-3.81,3.43a1.44,1.44,0,0,0-.28,1.78l2.36,4.09a1.44,1.44,0,0,1-.23,1.74l-2.05,2a1.44,1.44,0,0,0-.34,1.51l1,2.8a2.07,2.07,0,0,1-.38,1.17,3.49,3.49,0,0,0,1.06,4.5l.17,3.41"/><path class="cls-40" d="M259.25,163.46l-9.15-3.25a1.44,1.44,0,0,0-1.68.49l-2.72,3.71a1.44,1.44,0,0,1-1.16.59h-3.23a1.44,1.44,0,0,0-1.43,1.28l-.4,3.76a1.44,1.44,0,0,1-1.43,1.28h-2.92a1.44,1.44,0,0,0-1.42,1.26l-.37,3.09a1.44,1.44,0,0,1-.89,1.16l-3.77,1.52a1.44,1.44,0,0,0-.69,2.08l1.75,2.86a1.44,1.44,0,0,1-.61,2l-4.36,2.08a1.44,1.44,0,0,0-.73,1.8l1.18,3.15a1.44,1.44,0,0,1-.42,1.6L222.39,196a1.44,1.44,0,0,0-.07,2.13L224.2,200a1.44,1.44,0,0,1,0,2.06l-4.11,4a1.44,1.44,0,0,0-.21,1.79l1.64,2.61a1.44,1.44,0,0,1-.25,1.83l-3.81,3.43a1.44,1.44,0,0,0-.28,1.78l2.36,4.09a1.44,1.44,0,0,1-.23,1.74l-2.05,2a1.44,1.44,0,0,0-.34,1.51l1,2.8a2.07,2.07,0,0,1-.38,1.17,3.49,3.49,0,0,0,1.06,4.5l.17,3.41"/><path class="cls-41" d="M242.78,159.93l-5.41-2.12a1.44,1.44,0,0,0-1.68.49L233,162a1.44,1.44,0,0,1-1.16.59h-3.23a1.44,1.44,0,0,0-1.43,1.28l-.4,3.76a1.44,1.44,0,0,1-1.43,1.28h-2.92a1.44,1.44,0,0,0-1.42,1.26l-.37,3.09a1.44,1.44,0,0,1-.89,1.16L216,176a1.44,1.44,0,0,0-.69,2.08l1.75,2.86a1.44,1.44,0,0,1-.61,2L212.05,185a1.44,1.44,0,0,0-.73,1.8l1.18,3.15a1.44,1.44,0,0,1-.42,1.6l-2.43,2.05a1.44,1.44,0,0,0-.07,2.13l1.88,1.81a1.44,1.44,0,0,1,0,2.06l-4.11,4a1.44,1.44,0,0,0-.21,1.79L208.8,208a1.44,1.44,0,0,1-.25,1.83l-3.81,3.43a1.44,1.44,0,0,0-.28,1.78l2.36,4.09a1.44,1.44,0,0,1-.23,1.74l-2.05,2a1.44,1.44,0,0,0-.34,1.51l1,2.8a2.07,2.07,0,0,1-.38,1.17c-.55,1,2.45,2.43,2.93,3.41"/><path class="cls-42" d="M243.63,156.08l-5.21-2.57a1.44,1.44,0,0,0-1.72.34l-3,3.47a1.44,1.44,0,0,1-1.2.49l-3.22-.27a1.44,1.44,0,0,0-1.53,1.16l-.71,3.72a1.44,1.44,0,0,1-1.53,1.16l-2.91-.25a1.44,1.44,0,0,0-1.53,1.14l-.63,3.05a1.44,1.44,0,0,1-1,1.08l-3.88,1.19a1.44,1.44,0,0,0-.86,2l1.5,3a1.44,1.44,0,0,1-.78,2l-4.52,1.7a1.44,1.44,0,0,0-.87,1.73l.91,3.24a1.44,1.44,0,0,1-.55,1.56l-2.6,1.84a1.44,1.44,0,0,0-.25,2.12l1.72,2a1.44,1.44,0,0,1-.17,2.05l-4.44,3.66a1.44,1.44,0,0,0-.36,1.77l1.42,2.74a1.44,1.44,0,0,1-.41,1.8l-4.09,3.1a1.44,1.44,0,0,0-.43,1.75l2,4.28a1.44,1.44,0,0,1-.38,1.71l-2.22,1.85a1.44,1.44,0,0,0-.47,1.47l.77,2.88c.05.21-.3.57-.48,1.13-.7,2.26-2,3.48-.93,3.65"/><path class="cls-43" d="M220.58,228.46l.94-7.15c0-.21-3.26.75-3.44.65l-2.75-4.15a.49.49,0,0,1-.08-.82l6.79-5.35a.49.49,0,0,0,.1-.67l-2-2.85a.49.49,0,0,1,0-.57l3.64-5a.49.49,0,0,0,.06-.46L222,197.11a.49.49,0,0,1,.14-.54l3-2.55a.49.49,0,0,0,.13-.56l-2.07-5a.49.49,0,0,1,.11-.54l3-2.93a.49.49,0,0,0,0-.69l-1.43-1.5a.49.49,0,0,1,0-.72l3.74-3a.49.49,0,0,0,.11-.64l-1.68-2.75a.49.49,0,0,1,.42-.75H231a.49.49,0,0,0,.49-.42l.6-3.8a.49.49,0,0,1,.49-.42h4.26a.49.49,0,0,0,.48-.58l-.61-3.16a.49.49,0,0,1,.48-.58h4.41a.49.49,0,0,0,.49-.49v-3.24a.49.49,0,0,1,.49-.49H246a.49.49,0,0,0,.49-.49v-3.62c0-.27,4.27-1.42,4.54-1.42l7,3.27"/><path class="cls-44" d="M248.93,162l-9,9.21a1.6,1.6,0,0,0-.14,2h0a1.6,1.6,0,0,1-.58,2.3l-3,1.58a1.6,1.6,0,0,0-.68,2.12c.34.67,2.53,4.09,2.48,4.33-.09.5-5.57,1.64-5.94,2.14-.23.32.22,2.18.58,3.51a1.6,1.6,0,0,1-1,1.91l-1.35.52a1.6,1.6,0,0,0-1,1.49v5.1a1.58,1.58,0,0,1-.25.86,19.2,19.2,0,0,1-2.51,3.27c-.8.67-.32,3.68-.1,4.87a1.59,1.59,0,0,1-.11.95l-1.26,2.8a1.6,1.6,0,0,0-.12.92l1.15,6.85a1.6,1.6,0,0,1-.24,1.14l-1.59,2.44a1.6,1.6,0,0,0-.2,1.31l1.55,5.48a1.6,1.6,0,0,1-.42,1.58l-2.64,2.6"/><path class="cls-45" d="M228.3,233.68l2.64-2.6a1.6,1.6,0,0,0,.42-1.58L229.82,224a1.6,1.6,0,0,1,.2-1.31l1.59-2.44a1.6,1.6,0,0,0,.24-1.14l-1.15-6.85a1.6,1.6,0,0,1,.12-.92l1.26-2.8a1.59,1.59,0,0,0,.11-.95c-.22-1.18-.7-4.2.1-4.87a19.2,19.2,0,0,0,2.51-3.27,1.58,1.58,0,0,0,.25-.86v-5.1a1.6,1.6,0,0,1,1-1.49l1.35-.52a1.62,1.62,0,0,0,1-1.93c-.33-1.31,2.13-.95,2.35-1.26a10.45,10.45,0,0,0,3-4.35c.09-.23-2.09-3.68-2.43-4.35a1.6,1.6,0,0,1,.68-2.12l3-1.58a1.6,1.6,0,0,0,.58-2.3h0a1.6,1.6,0,0,1,.14-2l4.35-.5,2.15-3.48a3.62,3.62,0,0,1,2.27-.29,6.32,6.32,0,0,0,4.11-.43l3.58-1.8c.86.74-2.13,5.7-1,5.46l.52-.11a3.62,3.62,0,0,1,4,1.88l.09.18"/><path class="cls-46" d="M252,155.53s6.1-2,8.61-1.72,6.47,4.33,6.75,5l.81,1.91a1.78,1.78,0,0,0,.94.95h0a1.78,1.78,0,0,1,1.05,1.34l-2.5,3.46c.15.86,3.68-.25,4.55-.25H273a1.78,1.78,0,0,1,1.34.6c.92,1,2.67,3.08,2.59,3.43a4.57,4.57,0,0,1-1,1.17,1.78,1.78,0,0,0,.12,2.65,6,6,0,0,0,2.6,1.5c1.16,0,1.78,3.33,1.43,3.51-2.33,1.13,1.79,3,2.62,4.35a1.77,1.77,0,0,1,.19,1.5,9.6,9.6,0,0,0-.62,2.55c.11.26,1.66,2.82,2.58,4.32a1.78,1.78,0,0,1-.16,2.07l-2.17,2.59a1.78,1.78,0,0,0-.2,2l4.5,2.13c.19.35-2.37,2.1-2.44,2.5l-.81,4.69a1.78,1.78,0,0,0,.08.91l1.61,4.47a1.78,1.78,0,0,1-.1,1.44l-1.34,2.54a1.78,1.78,0,0,1-.33.44l-1.16,1.13a1.78,1.78,0,0,0,.24,2.75l.13,5.44"/><path class="cls-47" d="M259.25,164.2l5.31-5.5a2,2,0,0,0,.23-.2c.36-.37,1.65-1.64,2-1.24s1.47.1,2.47-.09a2,2,0,0,1,2.12.91l.72,1.14a2.05,2.05,0,0,0,.64.64l2.86,1.79a2.05,2.05,0,0,1,.86,1.09l.87,2.62a2.05,2.05,0,0,0,.74,1l1.9,1.38a2.05,2.05,0,0,1,.41.39l1.27,1.61a2.05,2.05,0,0,1,.44,1.19l.06,1.68a2.05,2.05,0,0,0,1.69,1.94h0a2.05,2.05,0,0,1,1.6,2.62l-.24.78a2.05,2.05,0,0,0,.74,2.25l2.23,1.65a2.05,2.05,0,0,1,.72,2.31l-.14.42a2.05,2.05,0,0,0,.62,2.23l2.26,1.9a2.05,2.05,0,0,1,.31,2.82l-1.37,1.78a2.05,2.05,0,0,0,.36,2.86l.21.16a2.05,2.05,0,0,1,.72,2.11l-.62,2.46a2.05,2.05,0,0,0,.85,2.2l.45.3a2.05,2.05,0,0,1,.55,2.86l-2.14,3.12a2.05,2.05,0,0,0-.24,1.84l1.1,3.13a2.05,2.05,0,0,1,.07.24l.78,3.56"/><path class="cls-48" d="M194.46,214l5.12-1.2a1.51,1.51,0,0,0,1-.78l1.89-3.65a1.51,1.51,0,0,1,1.93-.7l.64.27a1.51,1.51,0,0,0,2.07-1.68L206,200.8a1.51,1.51,0,0,1,2-1.72l1.77.61a1.51,1.51,0,0,0,2-1.34l.22-4a1.51,1.51,0,0,1,1.89-1.38l1.05.28a1.51,1.51,0,0,0,1.83-1l1.76-6.21a1.51,1.51,0,0,1,1.81-1.06l2.07.5a1.51,1.51,0,0,0,1.84-1.19l1-5.53a1.51,1.51,0,0,1,2.35-1l3.42,2.4a1.5,1.5,0,0,0,1,.27c1.94-.17,8.29-.88,7.16-3-1-1.91,2.55,2.88,4.44,4a5.93,5.93,0,0,0,2.69-.38,4,4,0,0,0,2.75-2.74l.2-.7A6.1,6.1,0,0,1,251,175c1.31-1.26,2.38-3.2,4.27-3,1.37.13,3.62,2.33,4.87,1.76l5.74-2.24"/><path class="cls-49" d="M186.48,205.06l.24-4.68a2.35,2.35,0,0,1,1.19-1.93l1.26-.71a2.35,2.35,0,0,0,1.15-2.53l-.7-3.38a2.35,2.35,0,0,1,2.78-2.78l.66.14a2.35,2.35,0,0,0,2.82-2.49l-.17-2.07a2.35,2.35,0,0,1,2.3-2.54h.47a2.35,2.35,0,0,0,2.25-1.83c.56-2.5,1.57-6.75,1.95-7.13s2.81.42,4.69,1.07a2.34,2.34,0,0,0,2.94-1.34c1-2.39,2.59-5.89,3.69-5.45s3.81,2.72,5.86,4.48a2.35,2.35,0,0,0,3.65-.77l1.69-3.55a2.35,2.35,0,0,1,3.58-.83l3.78,3a2.35,2.35,0,0,0,3.43-.56l2.73-4.21a2.35,2.35,0,0,1,2.88-.89l5.63,2.36c.31.13,1-.86,1.74-2a3.37,3.37,0,0,1,4.92-.85l1.32,1"/><path class="cls-50" d="M193.73,211.45l-.06-4.69a2.35,2.35,0,0,1,1.07-2L196,204a2.35,2.35,0,0,0,1-2.59l-.92-3.32a2.35,2.35,0,0,1,2.6-3l.67.1a2.35,2.35,0,0,0,2.66-2.67l-.3-2.05a2.35,2.35,0,0,1,2.14-2.68l.47,0a2.34,2.34,0,0,0,2.13-2c.4-2.53,1.14-6.84,1.49-7.25s2.83.24,4.74.77a2.34,2.34,0,0,0,2.84-1.51c.81-2.44,2.21-6.05,3.34-5.68s4,2.48,6.14,4.1a2.34,2.34,0,0,0,3.59-1l1.46-3.65a2.35,2.35,0,0,1,3.52-1.05l4.66.9c1.14.79,7.09-1.57,7.77-2.78"/><path class="cls-51" d="M298.86,231.15l-4-1.7a2.67,2.67,0,0,1-.77-2.57c.35-1.18,6-5.36,6-5.36a1.51,1.51,0,0,0-1.49-1.41h-.69a1.51,1.51,0,0,1-1.22-2.37l3.2-4.61a1.51,1.51,0,0,0-1.11-2.36l-1.86-.16a1.51,1.51,0,0,1-1.29-2l1.41-3.74a1.51,1.51,0,0,0-1.17-2l-1.07-.17a1.51,1.51,0,0,1-1.26-1.7l.89-6.4a1.51,1.51,0,0,0-1.23-1.69l-2.1-.37a1.51,1.51,0,0,1-1.2-1.83l1.29-5.48a1.51,1.51,0,0,0-1.76-1.83l-4.1.82a1.49,1.49,0,0,1-1-.15c-1.7-.93-7.24-4.15-5.35-5.63,1.7-1.34-3.9,1.33-5-.59-2-3.45-5.6-3.77-5.87-4.39l1.55-3a35.51,35.51,0,0,0-4.23-4.06L259,165.27"/><path class="cls-52" d="M302.64,190c0-.47-1.78-3.1-3.72-3.27a2.31,2.31,0,0,1-2.11-2.37c.08-2.53,0-6.33-1.17-6.37s-2.59-1.56-5.12-.79c-.65.2-1-.52-1.19-1.51a2.71,2.71,0,0,0-3.79-2h0a2.31,2.31,0,0,0-2.89-2.17l-4.58,1.21a2.31,2.31,0,0,1-2.86-1.87l-.79-4.87a2.31,2.31,0,0,0-2.23-1.94l-6-.11c-.33,0-.57-1.17-.77-2.49a3.31,3.31,0,0,0-4.09-2.72l-1.59.41"/><path class="cls-53" d="M300.23,227.69l1.94-4.27a2.35,2.35,0,0,0-.17-2.26l-.79-1.21a2.35,2.35,0,0,1,.14-2.77l2.18-2.67a2.35,2.35,0,0,0-1.19-3.75l-.65-.18a2.35,2.35,0,0,1-1.36-3.51l1.1-1.76a2.35,2.35,0,0,0-.87-3.31l-.41-.22a2.34,2.34,0,0,1-1.16-2.66c.65-2.47,1.72-6.72,1.56-7.24s-2.69-.92-4.65-1.21a2.34,2.34,0,0,1-2-2.53c.24-2.56.41-6.43-.77-6.54s-4.65.67-7.27,1.28a2.34,2.34,0,0,1-2.88-2.37l.13-3.93a2.35,2.35,0,0,0-2.8-2.39l-4.63-1.05c-1.36.27-8.28-7.29-12.69-3.76"/><path class="cls-54" d="M214.54,567.74c.86,1.7,16.52-2.52,16.52-2.52l-.36-1.57L226.2,544a80.76,80.76,0,0,1,1.25-17.26c-4.65,2.49-14.76.69-14.76.69s.94,6.62-.14,8.77a6.81,6.81,0,0,0-.49,1.49,30.77,30.77,0,0,0-.12,10.36c.41,2.21,1,8.8,1.59,13.78h0A31.26,31.26,0,0,0,214.54,567.74Z"/><path class="cls-55" d="M213.26,560.89h0c.1.35.19.65.26.94-.59-5-1.17-11.57-1.59-13.78a30.77,30.77,0,0,1,.12-10.36,8,8,0,0,0-2.22,5.91C210,547,212,556.45,213.26,560.89Z"/><path class="cls-56" d="M213.16,570.74c1.48,4.41,8.14,8.59,13.66,7.8,5.12-.74,8.87-8.12,3.88-14.89l.36,1.57s-15.66,4.22-16.52,2.52a31.26,31.26,0,0,1-1-5.89h0c-.08-.29-.73-5.67-.83-6C212.17,559,212.33,568.28,213.16,570.74Z"/><path class="cls-57" d="M285.68,562.34c0,1.3-6.94,4.62-8.73,5.2s-5.29-1.88-5.14-6.65-8.39-24-8.82-25.15c-.32-.85.45-1.78.88-2.2.16-.16.27-.25.27-.25L263,527.5l15.74-3.32s1,9.11,1.6,11.71.43,7.09,1.3,11.67c.79,4.16,3.48,11.85,4,14.22A2.94,2.94,0,0,1,285.68,562.34Z"/><path class="cls-58" d="M293.34,575.06c-2.32,1.59-12.86-.87-17.93-2s-5.34-9.54-5.64-12.71c-.13-1.47-1.86-4.66-3.95-8h0c-1.34-2.19-2.82-4.45-4.11-6.37h0l-1.45-2.19a4.55,4.55,0,0,1-.61-3.66c1-3.69,2.71-5.55,4.22-6.49-.43.42-1.21,1.35-.88,2.2.43,1.16,9,20.38,8.82,25.15s3.36,7.23,5.14,6.65,8.73-3.9,8.73-5.2a2.94,2.94,0,0,0-.08-.56C289,565.54,295.21,573.77,293.34,575.06Z"/><path class="cls-59" d="M266.24,564.36h-2l-2.57-18.46c1.29,1.93,2.77,4.19,4.11,6.37h0Z"/><path class="cls-60" d="M278.81,325.24c12.51,37.52,8.9,113.71,8.9,113.71l-7.34,91H260.83c-4.79-55,1.48-88,1.48-88l-7-60.36-9.78,61.53-16.14,86.85H209.43c-.59-14.66,3.24-51.3,10.86-89.78-5.86-34-7.34-42.3-5-71.5s17-44,17-44Z"/><path class="cls-28" d="M266.3,312V287.72l-13.48-38.11-15.24-11.73c-50.42,21.69-57.08,79.74-57.08,79.74L198.29,351l12.9-11.73L203,317l19.35-32.54,7.35,25.33C241.83,311.43,254.2,312.77,266.3,312Z"/><path class="cls-28" d="M284.67,286.55l32.05,16,3.52-19s-36.66-21.62-39.4-34.91c-14.54-9.67-18.06-12.58-18.06-12.58l-.35,1.76-1.6,8,5.47,41.82V312a91.64,91.64,0,0,0,11.64-1.43c0-3.35.21-6.33.87-7.65C280.76,299.05,284.67,286.55,284.67,286.55Z"/><path class="cls-61" d="M277.94,310.61A91.64,91.64,0,0,1,266.3,312c-12.1.73-24.48-.61-36.62-2.21l4.53,15.6,32.09,5.68,12.51-5.86S278,317.19,277.94,310.61Z"/><path class="cls-62" d="M397.74,276.54c-.74-1.94-13.13,4.36-13.32,3-.11-.81,11.66-5.06,11-6.53s-6.8,1.61-10.81,2.76-8.61,1.06-9.85-.44,8.15-5.59,5.77-8c-1.22-1.23-15.39,10.35-15.39,10.35a13.52,13.52,0,0,0-2.41,3.12l-.1-.09c-6.74,4.84-42.75,5-42.75,5A39.5,39.5,0,0,0,317.19,300c19.52,4.11,49.22-8.65,49.22-8.65v0a63.16,63.16,0,0,0,11.35.48,52.48,52.48,0,0,0,9-2c3.77-1.12,8.66-2.63,7.95-4s-6.9,1.67-7.44.89,11.08-4.36,10.46-6-11.74,3.59-12,2.83S398.32,278.06,397.74,276.54Z"/><path class="cls-63" d="M209.35,341l4,7.41,13.76,8-4.89,17.18s-13.86-8.47-15.62-12-1-5-1-5l-5.34-7.38Z"/><path class="cls-64" d="M229.33,328.28s24.94,5.44,31.5,5.63,19.72-2.82,19.72-2.82l.93,3.82s-11,3.2-20,3.1c-8.63-.1-34.66-6.1-34.66-6.1Z"/><polygon class="cls-65" points="238.66 328.93 241.01 329.52 238.66 335.38 236.22 334.79 238.66 328.93"/><polygon class="cls-66" points="272.45 332.15 274.63 331.11 276.57 337.11 274.32 338.22 272.45 332.15"/><polygon class="cls-28" points="237.57 237.88 229.53 237.88 230.16 247.73 242.72 251.98 241.56 259.6 266.3 287.72 252.82 249.61 237.57 237.88"/><polygon class="cls-67" points="228.95 350.07 220.41 380.11 222.66 380.99 231.83 349.74 228.95 350.07"/><path class="cls-68" d="M264.72,174s2.12-8.75-11.07-17.5"/></g></svg>