<svg xmlns="http://www.w3.org/2000/svg" xmlns:xlink="http://www.w3.org/1999/xlink" viewBox="0 0 650 650"><defs><style>.cls-1{fill:url(#Безымянный_градиент_263);}.cls-2{fill:#e6e8eb;}.cls-3{fill:url(#Безымянный_градиент_123);}.cls-4{fill:#361f22;}.cls-5{fill:#1f1844;}.cls-6{fill:url(#Безымянный_градиент_123-2);}.cls-7{fill:url(#Безымянный_градиент_123-3);}.cls-8{fill:url(#Безымянный_градиент_123-4);}.cls-9{fill:url(#Безымянный_градиент_122);}.cls-10{fill:url(#Безымянный_градиент_48);}.cls-11{fill:url(#Безымянный_градиент_123-5);}.cls-12{fill:url(#Безымянный_градиент_19);}.cls-13{fill:url(#Безымянный_градиент_216);}.cls-14{fill:#fff;}.cls-15{fill:url(#Безымянный_градиент_263-2);}.cls-16{fill:url(#Безымянный_градиент_123-6);}.cls-17{fill:#53383d;}.cls-18{fill:url(#Безымянный_градиент_8);}.cls-19{fill:url(#Безымянный_градиент_216-2);}.cls-20{fill:url(#Безымянный_градиент_25);}.cls-21{fill:url(#Безымянный_градиент_25-2);}.cls-22{fill:url(#Безымянный_градиент_25-3);}.cls-23,.cls-24{fill:none;stroke:#f2f4f6;stroke-linecap:round;stroke-miterlimit:10;}.cls-23{stroke-width:1.38px;}.cls-23,.cls-26,.cls-27{opacity:0.5;}.cls-24{stroke-width:2.75px;opacity:0.6;}.cls-25{fill:#d4d6d9;}.cls-26{fill:url(#Безымянный_градиент_263-3);}.cls-27{fill:url(#Безымянный_градиент_263-4);}.cls-28{fill:url(#Безымянный_градиент_8-2);}.cls-29{fill:url(#Безымянный_градиент_123-7);}</style><linearGradient id="Безымянный_градиент_263" x1="50.81" y1="342.1" x2="631.29" y2="342.1" gradientUnits="userSpaceOnUse"><stop offset="0" stop-color="#f0f2f5"/><stop offset="0.99" stop-color="#f5f7f8"/></linearGradient><linearGradient id="Безымянный_градиент_123" x1="356.65" y1="526.51" x2="372.8" y2="526.51" gradientUnits="userSpaceOnUse"><stop offset="0" stop-color="#753200"/><stop offset="1" stop-color="#a04400"/></linearGradient><linearGradient id="Безымянный_градиент_123-2" x1="320.43" y1="548.64" x2="337.51" y2="548.64" xlink:href="#Безымянный_градиент_123"/><linearGradient id="Безымянный_градиент_123-3" x1="127.04" y1="431.05" x2="133.5" y2="431.05" gradientTransform="translate(308.01 -317.43) rotate(11.19)" xlink:href="#Безымянный_градиент_123"/><linearGradient id="Безымянный_градиент_123-4" x1="56.16" y1="479.18" x2="104.41" y2="451.61" gradientTransform="translate(308.01 -317.43) rotate(11.19)" xlink:href="#Безымянный_градиент_123"/><linearGradient id="Безымянный_градиент_122" x1="90.74" y1="430.79" x2="119.1" y2="412.46" gradientTransform="translate(308.01 -317.43) rotate(11.19)" gradientUnits="userSpaceOnUse"><stop offset="0" stop-color="#a04400" stop-opacity="0"/><stop offset="0.18" stop-color="#9a4100" stop-opacity="0.14"/><stop offset="0.52" stop-color="#8a3b00" stop-opacity="0.52"/><stop offset="0.9" stop-color="#753200"/></linearGradient><linearGradient id="Безымянный_градиент_48" x1="130.05" y1="456.5" x2="105.24" y2="480.86" gradientTransform="translate(308.01 -317.43) rotate(11.19)" gradientUnits="userSpaceOnUse"><stop offset="0" stop-color="#a04400"/><stop offset="1" stop-color="#753200"/></linearGradient><linearGradient id="Безымянный_градиент_123-5" x1="130.17" y1="439.35" x2="126.96" y2="442.49" gradientTransform="translate(308.01 -317.43) rotate(11.19)" xlink:href="#Безымянный_градиент_123"/><linearGradient id="Безымянный_градиент_19" x1="340.56" y1="240.58" x2="293.81" y2="243.25" gradientUnits="userSpaceOnUse"><stop offset="0.09" stop-color="#3d3c99"/><stop offset="0.61" stop-color="#3d3c99"/><stop offset="1" stop-color="#201f4f"/></linearGradient><linearGradient id="Безымянный_градиент_216" x1="299.08" y1="265.58" x2="374.66" y2="265.58" gradientUnits="userSpaceOnUse"><stop offset="0" stop-color="#201f4f"/><stop offset="0.39" stop-color="#3d3c99"/><stop offset="1" stop-color="#403da0"/></linearGradient><linearGradient id="Безымянный_градиент_263-2" x1="308.76" y1="186.6" x2="352.36" y2="186.6" xlink:href="#Безымянный_градиент_263"/><linearGradient id="Безымянный_градиент_123-6" x1="443.57" y1="362.11" x2="391.95" y2="365.06" xlink:href="#Безымянный_градиент_123"/><linearGradient id="Безымянный_градиент_8" x1="354.8" y1="279.67" x2="415.97" y2="279.67" gradientUnits="userSpaceOnUse"><stop offset="0" stop-color="#201f4f"/><stop offset="0.39" stop-color="#3d3c99"/></linearGradient><linearGradient id="Безымянный_градиент_216-2" x1="324.12" y1="253.75" x2="445.72" y2="215.06" xlink:href="#Безымянный_градиент_216"/><radialGradient id="Безымянный_градиент_25" cx="330.56" cy="249.23" r="6.14" gradientUnits="userSpaceOnUse"><stop offset="0.09" stop-color="#3d3c99"/><stop offset="1" stop-color="#201f4f"/></radialGradient><radialGradient id="Безымянный_градиент_25-2" cx="331.02" cy="267.47" r="6.14" xlink:href="#Безымянный_градиент_25"/><radialGradient id="Безымянный_градиент_25-3" cx="332.12" cy="295.29" r="6.14" xlink:href="#Безымянный_градиент_25"/><linearGradient id="Безымянный_градиент_263-3" x1="312.84" y1="134.81" x2="330.21" y2="134.81" xlink:href="#Безымянный_градиент_263"/><linearGradient id="Безымянный_градиент_263-4" x1="291.48" y1="133.81" x2="307.76" y2="133.81" xlink:href="#Безымянный_градиент_263"/><linearGradient id="Безымянный_градиент_8-2" x1="331.39" y1="326.08" x2="265.49" y2="244.87" xlink:href="#Безымянный_градиент_8"/><linearGradient id="Безымянный_градиент_123-7" x1="284.45" y1="312.68" x2="319.32" y2="312.68" xlink:href="#Безымянный_градиент_123"/></defs><title>1</title><g id="Слой_2" data-name="Слой 2"><path class="cls-1" d="M611.47,353.67C560.49,249.46,414.7,96.83,225.26,96.43,27.57,96,8.45,292.09,115,346.58S65.75,469,177.13,537.27c112.73,69.08,353.63,62.6,412.93,8.86S633.49,398.69,611.47,353.67Z"/><polygon class="cls-2" points="406.42 215.54 428.65 215.54 428.65 512.16 479.61 512.16 479.61 215.54 498.14 215.54 454.13 118.42 406.42 215.54"/><path class="cls-3" d="M372.8,528.19c-.65.4-1.46.91-2.45,1.47-12.09,6.88-12.51-4.64-13.25-4.15l-.44-4.35,15.34.28Z"/><path class="cls-4" d="M393.13,555.09c3.26,2.91,3,8.84-.12,11.9a12.34,12.34,0,0,1-3.37,2.46h0c-13.64-4.61-34.05-25.52-39.41-30.53.27-4.41.25-12.05,6.43-14.71,3.44,6.71,10.07,7.52,13.69,5.46,1-.56,1.8-1.07,2.45-1.47,1.74-1,2.37-1.21,2.37.79,0,2.75,2.92,12.22,8.26,18C386.1,549.93,390.18,552.45,393.13,555.09Z"/><path class="cls-5" d="M390.1,569.27a7.12,7.12,0,0,1-4.64.51c-6-1.37-27.52-18.38-33.87-24.6-1.85-1.81-1.41-4.68-.9-6.44C356.05,543.75,376.46,564.66,390.1,569.27Z"/><polygon class="cls-4" points="396.34 396.4 396.34 425.67 441.79 397.43 441.79 393.46 401.85 419.99 396.34 396.4"/><path class="cls-6" d="M335.51,556.85c-2.51.85-4.82-5.33-7.76-6.53-1.61-.67-4.38-.61-6.53-.4l-.8-7.51,15.37-2.08L337.46,552S338,556,335.51,556.85Z"/><path class="cls-5" d="M387.32,433.64l-11.59,92.1-23.2-1.54-.88-83.28s-9.37-76.9-17.18-75.53,7.43,183.41,7.43,183.41-4.34,2.63-14.6,1.69c-3.42-.32-6-.44-7.83-.47a5.7,5.7,0,0,1-5.56-4.82L284.5,354.54A232.13,232.13,0,0,0,299.08,333l26.32,3.11,7.29-25.48L344,336.13l30.66-6.87a82.5,82.5,0,0,0,5.07,22Z"/><path class="cls-4" d="M345.5,565.64s-8.79,7.58-15,11.87-20.83,9.82-25.48,10a8.39,8.39,0,0,1-4.7-1.14,7.21,7.21,0,0,1-3.57-6.43c0-4.66,5-6.2,12.76-11.54,6.3-4.35,8-13.6,8.47-16.88a1.6,1.6,0,0,1,1.37-1.38c.52-.07,1.16-.15,1.87-.21,2.15-.21,4.92-.28,6.53.4,2.93,1.2,5.25,7.38,7.76,6.53s1.94-4.83,1.94-4.83l.83.11a4.91,4.91,0,0,1,4,3.39Z"/><path class="cls-5" d="M345.81,566.71a4.76,4.76,0,0,1-1.6,5.07c-3.94,3.13-7.89,7.43-16.31,11.63-6.11,3-15.11,6.35-21.13,6.87a8.94,8.94,0,0,1-8.39-5.58,18.07,18.07,0,0,0,6.9,1.88c4.66-.18,19-4.74,25.24-9.05s15-11.87,15-11.87Z"/><path class="cls-7" d="M352.52,136.64c1.33-2.38,3.11-9,4-11-3.47-.21-7.43,4.26-8,7.31C349.35,133,351.7,135.8,352.52,136.64Z"/><path class="cls-8" d="M330,190.51a12.31,12.31,0,0,1-11.84-9.16,18.35,18.35,0,0,1-.16-4.69L318,175l.05-1.55.06-1.91a22.15,22.15,0,0,1-2.63-.34c-6.81-1.31-17.4-6.26-20.22-17.52-2-7.85,1.29-14.82,1.6-19.36s-1.36-7.87-1.9-13c-.69-6.58,2.39-14.58,5.71-16.32,14.93-7.88,40.61,1.7,40.61,1.7s8.53,4.39,4,22.43c.93-.55-1.07,3.21.18,3a7.76,7.76,0,0,1,6.21,1.45c3.16,2.73,2.84,8.94-4.12,17.11l-.24.29a40.71,40.71,0,0,0-.61,5.17c0,.26,0,.53-.06.8-.2,3.2-.47,7.35-.72,11.35-.36,5.78-.44,10.78-.51,12.71C345.28,185.71,339.85,190.85,330,190.51Z"/><path class="cls-9" d="M345.33,129.09c4.51-18-4-22.43-4-22.43s-25.68-9.58-40.61-1.7c-2.34,1.22-2.93,4.73-3.62,7.72,6-4.27,17.58-1.68,26.77-.84,4.4.4,2.13,5,3.35,5.29,9.88-1.16,16,4.15,13.41,17.84l4.78-2.86C344.4,132,346.23,128.56,345.33,129.09Z"/><path class="cls-5" d="M357.08,124.66c.76-3.17.81-6.66.66-11.46-.31-10.34-6.14-15.8-16.17-19.72l-9.69-3.12c-.88-.28-17.27-4.78-25.92-1.76-3.24,1.13-7.88,4.53-8.38,7.31-1.28,7.09-2.17,10.85-1.61,16.54,6.26-13.8,10.61,4.66,31.65-6.5,3.9-2.07,2.14,5,3.35,5.29,11.15-1.31,17.53,5.61,12,23.51,3-1.07,5.13-2.4,6.82-2.29C352.36,130.29,356.68,126.32,357.08,124.66Z"/><path class="cls-10" d="M346.68,156.95A40.37,40.37,0,0,1,318,175l.05-1.55.06-1.91a22.15,22.15,0,0,1-2.63-.34c6.23-3.53,23.58-13.55,32.07-20.48l-.24.29a40.71,40.71,0,0,0-.61,5.17C346.72,156.4,346.69,156.67,346.68,156.95Z"/><path class="cls-5" d="M345,134.3c.4-.3,1.59-1,1.59-1l-.11-3.52L341.06,132a3,3,0,0,0-1.81,2.54l-.77,12.3c-7.4,2.74-24.74,11.4-27.68,11.31-3.73-.11-4-4.86-6.2-4.2s-2.4,3.43-3.75,3.16c-.7-.14-4.74-3.93-5.87-6.18,0,0,.83,8.11,1.07,9.55.55,3.34,6.1,11,6.1,11a3.25,3.25,0,0,0,2.46,1.45l8.72.66,4.81-1.81c6.65-2.25,23.14-13,23.56-14.89C344.13,146.12,341,137.33,345,134.3Z"/><path class="cls-11" d="M345.8,137.95s2.63-3.23,4.21-.57-1.36,6.87-1.36,6.87Z"/><path class="cls-4" d="M382.68,391.53l15.22-8.22-.24-23.3,7.75-1.49-.11,19.39,14.92-9.49a6.74,6.74,0,0,1,3.89-1l19.59.78L396.34,396.4H383.12Z"/><path class="cls-12" d="M314.52,299.94c-8-18.77-18.74-71.55-18.74-71.55l4.82-6.54-7.23-6.2,8.7-30.06h0c4.81-.8,8.29-1.16,8.29-1.16a.69.69,0,0,1,0,.15c.12.8,4.1,4.79,4.81,10.79.39,3.13.81,6.79,1.24,10.84h0C318.68,227,316.62,282.92,314.52,299.94Z"/><path class="cls-13" d="M374.66,329.25,344,336.13l-11.31-25.48-7.29,25.48L299.08,333c4.68-7.78,4.59-.16,8.19-8.54a104,104,0,0,0,6.52-19.88q.27-1.28.45-2.52c.11-.67.21-1.39.29-2.12h0c2.09-17,4.15-73,1.91-93.73L320.69,218l8.84,24.51,6.78-19.81L351.26,195c4.39,15.25,7.11,43.24,12.6,58.73.23.67.48,1.39.7,2.15C369.06,270.49,372.59,308.77,374.66,329.25Z"/><polygon class="cls-5" points="336.31 222.71 329.53 242.51 320.69 218.01 324.16 198.2 328.97 198.2 336.31 222.71"/><polygon class="cls-5" points="332.12 192.43 329.3 198.2 323.79 198.2 320.81 191 326.78 186.38 332.12 192.43"/><path class="cls-14" d="M324.16,198.2,320.69,218l-4.26-11.79h0c-.43-4-.85-7.71-1.24-10.84l5.62-4.37,3,7.2Z"/><path class="cls-15" d="M352.36,186.38l-2.87,2.49-14,7.38-3.37-3.83-5.34-6-6,4.61-5.28,7.18a82.47,82.47,0,0,1-6.78-13.47l7.81-7.39,10.11,7.11L345.81,175l5.58,9.68Z"/><path class="cls-14" d="M351.26,195l-14.95,27.67L329,198.2h.33l2.82-5.77,4.65,6.79,12.73-10.35C350,190.54,350.57,192.64,351.26,195Z"/><path class="cls-16" d="M412.73,350.25s7.71,16.19,6.79,18.71-14.23,9-14.23,9V364.48s-5.15-1.35-7.56,2.56c.22,3.1.07,7.06.07,7.06s-5.38-4.85-4.46-10a35.16,35.16,0,0,1,3.09-9.26Z"/><path class="cls-17" d="M443.69,368.16l1.25,17.28a11,11,0,0,1-5,10L401.85,420l-5.51-23.59Z"/><polygon class="cls-4" points="383.12 396.4 384.8 445.3 396.34 448.05 396.34 396.4 383.12 396.4"/><path class="cls-17" d="M396.34,425.67l45.46-28.24V412a7,7,0,0,1-2.8,5.57L396.34,448Z"/><path class="cls-18" d="M374.55,263.08c10.89,22.63,13.36,66.35,19.84,93.13l21.58-6s-.82-50.56-6.35-70.58c-6-21.54-18.67-77.11-24.18-82.62-2.66-2.66-18-9.72-24.95-10.9L355.36,259C353.21,276.13,358,373.18,358,373.18l18-5.67a8.65,8.65,0,0,0,6-9.26C379.67,338.7,373.6,284.12,374.55,263.08Z"/><path class="cls-19" d="M369.48,226.67l-14.19,77.53c-4.1-31.45-4-91.77-4-109.17,0-2.49-1.29-4.49-1.76-6.16l2.87-2.49-1-1.68c2.71.28,4.78.74,9.1,1.46l6.58,27.43-5.17,6.89Z"/><circle class="cls-20" cx="330.56" cy="249.23" r="3.22"/><circle class="cls-21" cx="331.02" cy="267.47" r="3.22"/><circle class="cls-22" cx="332.12" cy="295.29" r="3.22"/><polygon class="cls-4" points="412.81 419 406.42 422.74 406.42 411.54 412.81 407.81 412.81 419"/><polygon class="cls-4" points="435.82 405.52 429.43 409.25 429.43 398.06 435.82 394.32 435.82 405.52"/><path class="cls-23" d="M307.36,129.35s2.81-3.15,6.2.41"/><line class="cls-24" x1="331.55" y1="133.52" x2="344.03" y2="130.77"/><polygon class="cls-25" points="43.42 302.77 65.66 302.77 65.66 512.16 116.62 512.16 116.62 302.77 135.15 302.77 91.14 234.2 43.42 302.77"/><polygon class="cls-2" points="151.17 234.65 171.98 234.65 171.98 512.16 219.65 512.16 219.65 234.65 236.99 234.65 195.81 143.78 151.17 234.65"/><polygon class="cls-25" points="559.22 243.47 499.94 337.05 527.57 337.05 527.57 512.16 590.88 512.16 590.88 337.05 613.9 337.05 559.22 243.47"/><circle class="cls-26" cx="321.52" cy="134.81" r="8.69"/><circle class="cls-27" cx="299.62" cy="133.81" r="8.14"/><path class="cls-28" d="M295.79,228.4l4.82-6.54-7.23-6.2,8.69-30.06c-7.37,1.2-20.18,5.83-25.74,9.43-9.17,6-33.73,92.82-30.51,99.7s35.24,26.65,35.24,26.65-1.71,10.89-3.94,39.24a10.16,10.16,0,0,0,4.64,7.83,96.48,96.48,0,0,0,17.32,9c1.61-1.75,4.6-44.6,8.19-53a104.29,104.29,0,0,0,6.51-19.88c.18-.85.33-1.69.45-2.52.11-.68.2-1.39.29-2.12h0C306.53,281.17,295.79,228.4,295.79,228.4Zm-21.1,57.2,9.76-25.25.06,34.94Z"/><path class="cls-29" d="M292.88,304.21s9.61-2.07,14.12-3.35c5.56,1.7-5,7.14-5,7.14h6.37s7.58-6.33,10.33-3.25-4.53,17.54-8.26,19.27-26-1.55-26-1.55S285.65,310.23,292.88,304.21Z"/></g></svg>